<?xml version="1.0" encoding="UTF-8"?>
<svg id="Layer_2" data-name="Layer 2" xmlns="http://www.w3.org/2000/svg" viewBox="0 0 873.87 902.27">
  <defs>
    <style>
      .cls-1 {
        fill: #704038;
      }

      .cls-2 {
        stroke: #fdbc8f;
      }

      .cls-2, .cls-3, .cls-4, .cls-5, .cls-6, .cls-7, .cls-8, .cls-9, .cls-10, .cls-11, .cls-12, .cls-13, .cls-14, .cls-15, .cls-16, .cls-17, .cls-18, .cls-19, .cls-20, .cls-21, .cls-22, .cls-23, .cls-24, .cls-25, .cls-26, .cls-27, .cls-28, .cls-29, .cls-30, .cls-31, .cls-32, .cls-33, .cls-34, .cls-35, .cls-36, .cls-37, .cls-38, .cls-39, .cls-40, .cls-41, .cls-42, .cls-43, .cls-44, .cls-45, .cls-46, .cls-47, .cls-48, .cls-49, .cls-50, .cls-51, .cls-52, .cls-53, .cls-54, .cls-55, .cls-56, .cls-57, .cls-58, .cls-59, .cls-60, .cls-61, .cls-62, .cls-63, .cls-64, .cls-65, .cls-66, .cls-67, .cls-68 {
        fill: none;
        stroke-width: 2px;
      }

      .cls-3 {
        stroke: #f5a73d;
      }

      .cls-4 {
        stroke: #feb543;
      }

      .cls-69 {
        fill: #f99;
      }

      .cls-5 {
        stroke: #8f836e;
      }

      .cls-6 {
        stroke: #aebaa2;
      }

      .cls-7 {
        stroke: #ac8c6c;
      }

      .cls-70 {
        fill: #210c1d;
      }

      .cls-8 {
        stroke: #9ca0a9;
      }

      .cls-9 {
        stroke: #f8f0e0;
      }

      .cls-10 {
        stroke: #4b494c;
      }

      .cls-11 {
        stroke: #ffd45e;
      }

      .cls-71 {
        fill: #f0e2c4;
      }

      .cls-12 {
        stroke: #fdab45;
      }

      .cls-13 {
        stroke: #6c7d7f;
      }

      .cls-14 {
        stroke: #41353e;
      }

      .cls-15 {
        stroke: #ce7325;
      }

      .cls-16 {
        stroke: #e4c24f;
      }

      .cls-17 {
        stroke: #89a29a;
      }

      .cls-72 {
        fill: #93c0bd;
      }

      .cls-73 {
        fill: #c8a735;
      }

      .cls-74 {
        fill: #9f4616;
      }

      .cls-18 {
        stroke: #fda23a;
      }

      .cls-75 {
        fill: #bab4b8;
      }

      .cls-76 {
        fill: #555354;
      }

      .cls-19 {
        stroke: #fb8c2a;
      }

      .cls-77 {
        fill: #69756e;
      }

      .cls-20 {
        stroke: #6a7077;
      }

      .cls-21 {
        stroke: #895f52;
      }

      .cls-22 {
        stroke: #a55c28;
      }

      .cls-78 {
        fill: #cc6c14;
      }

      .cls-23 {
        stroke: #72786f;
      }

      .cls-24 {
        stroke: #766050;
      }

      .cls-25 {
        stroke: #894b1d;
      }

      .cls-26 {
        stroke: #c5641f;
      }

      .cls-79 {
        fill: #957268;
      }

      .cls-27 {
        stroke: #865946;
      }

      .cls-28 {
        stroke: #626865;
      }

      .cls-29 {
        stroke: #926c5c;
      }

      .cls-80 {
        fill: #ffdd68;
      }

      .cls-30 {
        stroke: #593934;
      }

      .cls-31 {
        stroke: #907543;
      }

      .cls-32 {
        stroke: #b65915;
      }

      .cls-81 {
        fill: #32202d;
      }

      .cls-33 {
        stroke: #656d68;
      }

      .cls-82 {
        fill: #7d4c3b;
      }

      .cls-34 {
        stroke: #febe4e;
      }

      .cls-35 {
        stroke: #77463a;
      }

      .cls-36 {
        stroke: #4a2728;
      }

      .cls-83 {
        fill: #fc9f33;
      }

      .cls-84 {
        fill: #8e6550;
      }

      .cls-37 {
        stroke: #99947b;
      }

      .cls-85 {
        fill: #271413;
      }

      .cls-38 {
        stroke: #84a39c;
      }

      .cls-86 {
        fill: #eb8227;
      }

      .cls-87 {
        fill: #74867b;
      }

      .cls-39 {
        stroke: #9f9d81;
      }

      .cls-40 {
        stroke: #a6ad99;
      }

      .cls-41 {
        stroke: #ddcba6;
      }

      .cls-42 {
        stroke: #6f6168;
      }

      .cls-88 {
        fill: #4f4a4e;
      }

      .cls-89 {
        fill: #7e8c99;
      }

      .cls-43 {
        stroke: #8e431f;
      }

      .cls-44 {
        stroke: #464143;
      }

      .cls-90 {
        fill: #8f9c89;
      }

      .cls-45 {
        stroke: #7f5344;
      }

      .cls-46 {
        stroke: #986749;
      }

      .cls-91 {
        fill: #ffcb53;
      }

      .cls-47 {
        stroke: #5b676b;
      }

      .cls-48 {
        stroke: #8c7f6b;
      }

      .cls-49 {
        stroke: #748a89;
      }

      .cls-50 {
        stroke: #7e9b96;
      }

      .cls-51 {
        stroke: #382b36;
      }

      .cls-52 {
        stroke: #864722;
      }

      .cls-92 {
        fill: #fa7921;
      }

      .cls-53 {
        stroke: #be9b6f;
      }

      .cls-54 {
        stroke: #5f6461;
      }

      .cls-93 {
        fill: #230d18;
      }

      .cls-55 {
        stroke: #502d2a;
      }

      .cls-56 {
        stroke: #4c4a4a;
      }

      .cls-57 {
        stroke: #524f51;
      }

      .cls-58 {
        stroke: #756052;
      }

      .cls-59 {
        stroke: #7e6a5a;
      }

      .cls-60 {
        stroke: #2d1a20;
      }

      .cls-61 {
        stroke: #f8e096;
      }

      .cls-94 {
        fill: #fffefc;
      }

      .cls-95 {
        fill: #fbb63c;
      }

      .cls-96 {
        fill: #c9b387;
      }

      .cls-62 {
        stroke: #888486;
      }

      .cls-97 {
        fill: #b28257;
      }

      .cls-98 {
        fill: #83a7aa;
      }

      .cls-63 {
        stroke: #3c3036;
      }

      .cls-64 {
        stroke: #fecf98;
      }

      .cls-65 {
        stroke: #8f5628;
      }

      .cls-66 {
        stroke: #6f7e75;
      }

      .cls-67 {
        stroke: #aca888;
      }

      .cls-68 {
        stroke: #ffeeb2;
      }
    </style>
  </defs>
  <g id="Layer_1-2" data-name="Layer 1">
    <g>
      <path class="cls-52" d="m671.28,55.58c9.72,10.82,11.58,19.7,16.11,36.61,5.47,20.42,10.87,40.86,16.22,61.31,2.91,11.14,7.51,17.24,20.18,13.76,5.22-1.43,10.48-2.91,15.78-4.42.39-.11.63.03.74.42l15.16,57.47c.21.78-.08,1.26-.87,1.45-17.25,4.07-31.99,5.18-26.08,27.9,7.07,27.18,13.77,54.57,21.38,81.6,1.99,7.09,7.05,13,15.14,10.98,5.41-1.35,10.78-2.91,16.12-4.68.61-.2,1.26.13,1.47.73,0,.03.02.05.02.08l15.46,58.93c.05.2-.06.4-.26.46-4.76,1.37-9.53,2.7-14.3,3.99-14.08,3.8-12,13.57-8.9,25.49,5.05,19.41,10.2,38.81,15.43,58.18,2.01,7.46,2.67,11.8,8.88,15.01,5.16,2.66,15.16-1.29,20.31-2.8.37-.11.75.1.85.47,0,0,0,.01,0,.02l16.36,62.8c.11.42-.14.85-.56.96-7.51,2.01-20.21,3.99-25.78,8.21-5.04,3.83-6.6,9.43-4.68,16.81,4.01,15.41,8.04,30.8,12.09,46.19,2.02,7.66,3.17,13.41,3.44,17.24,1.45,20.07-7.16,39.49-23.6,50.95-8.05,5.61-16.87,7.86-26.88,10.55-53.55,14.43-107.18,28.79-160.88,43.06-.52.13-.85-.06-.98-.58-2.89-11.45-5.88-22.92-8.96-34.41-1.97-7.38-7.71-13.73-15.47-14.53-1.99-.21-4.87.19-8.63,1.21-28.59,7.75-57.18,15.47-85.79,23.16-3.74,1.01-7.93,1.89-11.09,3.77-7.51,4.46-11.47,12.75-9.78,21.65,2.25,11.8,5.73,23.48,8.74,35.14.09.34-.04.56-.38.65-56.95,15.45-113.85,30.95-170.7,46.5-17.67,4.83-33.76,2.64-48.28-6.58" vector-effect="non-scaling-stroke"/>
      <path class="cls-25" d="m741.83,109.12c-4.22.94-6.24,3.33-6.06,7.18.41,8.81,14.04,8.91,13.07-1.58" vector-effect="non-scaling-stroke"/>
      <path class="cls-25" d="m810.07,334.54c-9.61,4.89-2.74,16.95,7.77,12.51" vector-effect="non-scaling-stroke"/>
      <path class="cls-25" d="m627.96,780.37c-.07-1.24-.48-2.51-1.24-3.8-.66-1.13-1.61-1.98-2.84-2.56-4.89-2.31-8.11-.44-9.66,5.61" vector-effect="non-scaling-stroke"/>
    </g>
    <path class="cls-85" d="m533.42,7.4c0,4.09-3.31,7.4-7.4,7.4h0c-4.09,0-7.4-3.31-7.4-7.4S521.93,0,526.02,0c4.09,0,7.4,3.31,7.4,7.4h0Z"/>
    <path class="cls-85" d="m797.68,9.61c0,4.16-3.37,7.53-7.53,7.53h0c-4.16,0-7.53-3.37-7.53-7.53s3.37-7.53,7.53-7.53,7.53,3.37,7.53,7.53h0Z"/>
    <circle class="cls-71" cx="525.96" cy="7.32" r="4.53"/>
    <path class="cls-85" d="m612.67,26.58c-5.75,2.8-12.74.3-15.61-5.59h0c-2.87-5.89-.54-12.94,5.2-15.75,5.75-2.8,12.74-.3,15.61,5.59,0,0,0,0,0,0,2.87,5.89.54,12.94-5.2,15.74Z"/>
    <circle class="cls-71" cx="790.1" cy="9.51" r="4.71"/>
    <path class="cls-83" d="m609.48,25.06c-4.8,1.14-9.67-2.04-10.87-7.1s1.7-10.1,6.5-11.24c4.8-1.14,9.67,2.04,10.87,7.1h0c1.21,5.07-1.7,10.1-6.5,11.24h0Z"/>
    <rect class="cls-71" x="603.94" y="8.99" width="7.04" height="6.94" rx="2.89" ry="2.89" transform="translate(588.64 619.76) rotate(-89.4)"/>
    <circle class="cls-83" cx="745.01" cy="24.81" r="3.05"/>
    <path class="cls-85" d="m591.01,31.8c0,4.11-3.34,7.45-7.45,7.45-4.11,0-7.45-3.34-7.45-7.45h0c0-4.11,3.34-7.45,7.45-7.45h0c4.11,0,7.45,3.34,7.45,7.45Z"/>
    <ellipse class="cls-96" cx="583.35" cy="31.62" rx="4.73" ry="4.46" transform="translate(497.98 609.56) rotate(-84.7)"/>
    <ellipse class="cls-83" cx="723.82" cy="32.74" rx="2.45" ry="2.02" transform="translate(428.08 694.2) rotate(-68.5)"/>
    <path class="cls-85" d="m322.1,47.63c-2.66,2.19-6.67,1.71-8.97-1.07-2.29-2.78-2-6.82.66-9.01,2.66-2.19,6.67-1.71,8.97,1.07,2.29,2.78,2,6.82-.66,9.01Z"/>
    <circle class="cls-71" cx="317.89" cy="42.62" r="3.41"/>
    <path class="cls-85" d="m545.43,45.62c0,3.47-2.82,6.29-6.29,6.29h0c-3.47,0-6.29-2.82-6.29-6.29s2.82-6.29,6.29-6.29c3.47,0,6.29,2.82,6.29,6.29h0Z"/>
    <path class="cls-70" d="m671.28,55.58c9.72,10.82,11.58,19.7,16.11,36.61,5.47,20.42,10.87,40.86,16.22,61.31,2.91,11.14,7.51,17.24,20.18,13.76,5.22-1.43,10.48-2.91,15.78-4.42.39-.11.63.03.74.42l15.16,57.47c.21.78-.08,1.26-.87,1.45-17.25,4.07-31.99,5.18-26.08,27.9,7.07,27.18,13.77,54.57,21.38,81.6,1.99,7.09,7.05,13,15.14,10.98,5.41-1.35,10.78-2.91,16.12-4.68.61-.2,1.26.13,1.47.73,0,.03.02.05.02.08l15.46,58.93c.05.2-.06.4-.26.46-4.76,1.37-9.53,2.7-14.3,3.99-14.08,3.8-12,13.57-8.9,25.49,5.05,19.41,10.2,38.81,15.43,58.18,2.01,7.46,2.67,11.8,8.88,15.01,5.16,2.66,15.16-1.29,20.31-2.8.37-.11.75.1.85.47,0,0,0,.01,0,.02l16.36,62.8c.11.42-.14.85-.56.96-7.51,2.01-20.21,3.99-25.78,8.21-5.04,3.83-6.6,9.43-4.68,16.81,4.01,15.41,8.04,30.8,12.09,46.19,2.02,7.66,3.17,13.41,3.44,17.24,1.45,20.07-7.16,39.49-23.6,50.95-8.05,5.61-16.87,7.86-26.88,10.55-53.55,14.43-107.18,28.79-160.88,43.06-.52.13-.85-.06-.98-.58-2.89-11.45-5.88-22.92-8.96-34.41-1.97-7.38-7.71-13.73-15.47-14.53-1.99-.21-4.87.19-8.63,1.21-28.59,7.75-57.18,15.47-85.79,23.16-3.74,1.01-7.93,1.89-11.09,3.77-7.51,4.46-11.47,12.75-9.78,21.65,2.25,11.8,5.73,23.48,8.74,35.14.09.34-.04.56-.38.65-56.95,15.45-113.85,30.95-170.7,46.5-17.67,4.83-33.76,2.64-48.28-6.58-11.63-7.51-19.31-17.58-23.05-30.23-3.01-10.17-9.03-32.52-18.08-67.05-3.9-14.88-7.47-25.7-25.42-20.94-7.25,1.92-14.54,3.83-21.89,5.72-.24.06-.49-.08-.55-.32,0,0,0,0,0,0l-16.41-63.34c-.13-.5.17-1.01.66-1.14.02,0,.04-.01.07-.01,13.32-2.45,31.53-6.08,32.17-23.45.1-2.65-.77-7.42-2.6-14.31-5.14-19.31-10.29-38.61-15.44-57.92-2.14-8.04-3.21-16.6-14.57-13.58-8.41,2.23-16.81,4.48-25.22,6.76-.37.1-.61-.04-.71-.42l-13.92-52.04c-.07-.27.03-.45.3-.53,5.27-1.46,10.45-2.93,15.53-4.42,11.26-3.3,11.38-11.16,8.72-21.2-5.9-22.21-11.75-44.42-17.56-66.64-2.19-8.41-7.7-11.55-16.51-9.41-9.44,2.29-18.87,4.65-28.29,7.07-.35.09-.57-.03-.66-.38l-15.86-60.46c-.09-.33.1-.67.43-.76,0,0,.01,0,.02,0,6.35-1.57,12.65-3.23,18.89-4.99,8.72-2.47,11.91-8.2,9.58-17.2-6.41-24.75-12.94-49.45-19.57-74.11-2.39-8.88-2.54-18.71-.45-29.49,4.13-21.25,18.65-38.55,39.84-44.06,64.95-16.92,129.7-33.86,194.25-50.82.69-.18,1.12.07,1.3.76l11.05,40.94c.13.47.6.75,1.07.63l117.32-30.73c.18-.04.28-.22.24-.4l-10.2-40.04c-.07-.27.03-.44.3-.51,64.82-16.81,129.66-33.58,194.51-50.31,20.69-5.34,38.58-.79,53.67,13.64Z"/>
    <g>
      <path class="cls-38" d="m652.03,51.5c.99,4,2.49,8.26,3.43,11.84,8.73,33.23,17.59,66.43,26.57,99.59,3.3,12.19,8.74,25.03,22.71,27.88,11.42,2.34,22.04-5.99,26.66-16.16.51-1.11,1.62-1.57,3.34-1.36" vector-effect="non-scaling-stroke"/>
      <path class="cls-39" d="m744.49,212.04c-8.03.85-15.17,3.76-21.42,8.75" vector-effect="non-scaling-stroke"/>
      <path class="cls-10" d="m723.07,220.79l-2.5.5" vector-effect="non-scaling-stroke"/>
      <path class="cls-28" d="m720.57,221.29c-21.42.31-26.51-11.63-30.89-29.03-8.96-35.67-30.15-61.52-63.56-77.57-19.41-9.33-40.33-14.45-62.77-15.38-.34-.01-.6.12-.79.41-.64.96-1.48,1.64-2.53,2.03" vector-effect="non-scaling-stroke"/>
      <path class="cls-39" d="m448.28,129.25l-9.1-33.67" vector-effect="non-scaling-stroke"/>
      <path class="cls-51" d="m720.57,221.29c-1.16,2.61-2.97,4.81-5.44,6.62-7.9,5.78-9.25,15.51-6.87,24.64,6.39,24.43,12.77,48.87,19.14,73.32,1.86,7.12,4.22,18.77,8.64,24.71,8.89,11.93,20.35,8.25,32.74,4.75" vector-effect="non-scaling-stroke"/>
      <path class="cls-48" d="m768.78,355.33l7.31-2.22c.35-.11.72.09.83.44,0,.01,0,.02,0,.03l9.29,35.49c.06.23-.08.47-.31.53-.1.03-.21.02-.3-.03l-.46-.22c-.11-.05-.23-.07-.35-.06-6.23.75-11.95,2.78-17.14,6.09" vector-effect="non-scaling-stroke"/>
      <path class="cls-51" d="m767.66,395.38c-9.5,3.05-14.56,9.49-15.17,19.3-.08,1.21.05,2.58.39,4.12,5.87,26.72,13.01,53.24,20.16,79.65,3.44,12.74,10.89,20.28,25.25,19.41,2.11-.13,7.04-1.25,14.78-3.36" vector-effect="non-scaling-stroke"/>
      <path class="cls-48" d="m813.07,514.5c.48-.66.99-.88,1.54-.66.34.13.55.37.64.72l9.55,37.47c.09.33-.11.66-.43.75-.02,0-.04,0-.06.01-13.5,2.2-27.54,6.6-28.77,22.23" vector-effect="non-scaling-stroke"/>
      <path class="cls-48" d="m596.23,692.41c-5.21-2.44-10.77-3.41-16.7-2.91" vector-effect="non-scaling-stroke"/>
      <path class="cls-14" d="m579.53,689.5l.31-.82c.11-.29.32-.47.61-.55,62.89-16.64,103.14-27.6,120.77-32.89,25.17-7.54,42.84-22.54,56.76-44.72,13.43-21.41,18.7-44.43,15.81-69.05-.55-4.67-1.9-11.18-4.05-19.55-5.5-21.42-14.23-54.46-26.2-99.13-18.09-67.51-36.15-135.03-54.2-202.55-2.18-8.15-5.13-20.81-8.55-30.7-5.47-15.84-13.7-30.28-24.69-43.31-2.7-3.2-5.39-5.43-8.06-6.69" vector-effect="non-scaling-stroke"/>
      <path class="cls-58" d="m813.07,514.5c-16.63,2.73-29.13-5.65-33.22-21.52-6.06-23.51-12.13-47.01-18.21-70.51-1.12-4.35-1.58-8.07-1.38-11.18.37-5.71,2.84-11.01,7.4-15.91" vector-effect="non-scaling-stroke"/>
      <path class="cls-58" d="m768.78,355.33c-13.15,1.01-22.23-3.28-27.22-12.87-1.06-2.05-2.99-8.41-5.79-19.1-6.04-23.04-12.04-46.09-18.01-69.15-3.54-13.69-4.26-23.22,5.31-33.42" vector-effect="non-scaling-stroke"/>
      <path class="cls-59" d="m579.53,689.5l-110.05,29.58" vector-effect="non-scaling-stroke"/>
      <path class="cls-14" d="m469.48,719.08c-34.38,8.57-68.36,18.42-102.68,27.16-7.7,1.96-13.96,3.09-18.77,3.39-47.91,3-98.23-31.64-114.96-76.09" vector-effect="non-scaling-stroke"/>
      <path class="cls-53" d="m606.82,704.54c-.47,1.33-1.32,2.35-2.54,3.04" vector-effect="non-scaling-stroke"/>
      <path class="cls-7" d="m283.78,831.25l-.29-.21c-.3-.22-.33-.47-.08-.75.37-.43.81-.68,1.31-.75.43-.06.61-.3.55-.73-.11-.79.22-1.28,1.01-1.48" vector-effect="non-scaling-stroke"/>
      <path class="cls-48" d="m469.48,719.08c-13.36,8.19-18.18,19.99-14.47,35.41,1.99,8.29,4.07,16.55,6.23,24.8" vector-effect="non-scaling-stroke"/>
      <path class="cls-57" d="m216.78,701.58c4.73-1.04,3.35-3.95,2.39-7.78-5.11-20.33-10.12-40.68-15.01-61.06-.5-2.09-1.27-2.56-3.34-2.7" vector-effect="non-scaling-stroke"/>
      <path class="cls-13" d="m182.53,700.5c-1.44-4.88-7.77-27.52.94-28.08,2.96-.19,4.89-1.47,5.78-3.84.11-.31.32-.53.62-.67,3.91-1.83,10.81-7.7,9.13-12.72-2.14-6.41-10.38-.03-14.22,1.39" vector-effect="non-scaling-stroke"/>
      <path class="cls-23" d="m184.78,656.58l-.5-.25" vector-effect="non-scaling-stroke"/>
      <path class="cls-63" d="m174.49,208.79c-31.52,22.61-51.57,61.97-43.18,100.73,1.79,8.27,4.73,16.58,8.82,24.94" vector-effect="non-scaling-stroke"/>
      <path class="cls-62" d="m140.13,334.46c2.34,4.39,4.15,9,5.44,13.83" vector-effect="non-scaling-stroke"/>
      <path class="cls-20" d="m145.57,348.29c2.43,10.69,4.6,21.44,6.49,32.25.46,2.63,1.13,5.24,2.01,7.82.1.31.04.58-.17.81-1.22,1.31-1.22,2.45,0,3.42.23.19.38.43.43.72.99,5.91,4.71,9.7,6,15.17,3.59,15.21,6.49,28.48,8.72,39.81.54,2.75,1.3,5.18,2.27,7.29.14.31.38.46.73.46.83-.02,1.38.33,1.65,1.04.09.22.24.37.47.46.22.08.41.08.58,0" vector-effect="non-scaling-stroke"/>
      <path class="cls-57" d="m183.07,489.79c-.15.42-.41.59-.78.51-.31-.07-.47-.26-.48-.57-.1-1.93-.44-3.81-1.01-5.62-2.23-7.06-3.97-14.25-5.94-21.38-.52-1.89-1.76-2.5-3.71-1.81-.3.11-.42.32-.35.63,1.35,6.14,2.9,12.23,4.65,18.28,1.53,5.26,1.81,10.74,2.92,16.19,1.03,5.05,1.78,9.1,2.26,12.14.89,5.61,2.08,11.17,3.55,16.68.45,1.69.64,3.51.56,5.46-.26,6.16.33,11.24,2.27,17.09,1.17,3.54.16,7.1-.31,10.55-.13.9.18,1.92-.56,2.93-.18.25-.34.23-.47-.05l-.19-.41c-.26-.55-.45-.52-.57.07-.18.86-.24,1.71-.17,2.56" vector-effect="non-scaling-stroke"/>
      <path class="cls-5" d="m184.74,563.04c-1.88-6.59-3.28-15.42-7.25-21" vector-effect="non-scaling-stroke"/>
      <path class="cls-54" d="m177.49,542.04l.64-.45c.27-.19.37-.45.29-.78-6.51-26.38-13.28-52.8-19-79.36-1.81-8.42-4.3-17.49-5.35-25.97-.04-.33,0-.64.13-.94,2.09-4.86-2.7-18.37-4.21-22" vector-effect="non-scaling-stroke"/>
      <path class="cls-5" d="m98.78,336.08l-7.25,6.92" vector-effect="non-scaling-stroke"/>
      <path class="cls-5" d="m74.32,354.79c2.86,11.43,6.46,19.78,9.48,33.82" vector-effect="non-scaling-stroke"/>
      <path class="cls-24" d="m83.8,388.61c5.55-.92,11.02-1.96,16.43-3.12,16.5-3.53,27.7,2.85,32.19,19.12,5.33,19.3,11.41,40.17,18.24,62.61,1.34,4.39,3.1,10.46,2.88,14.84-.15,3.12-.72,6.23-1.69,9.33" vector-effect="non-scaling-stroke"/>
      <path class="cls-37" d="m151.85,491.39c-4.17,6.19-9.52,10.97-16.07,14.36" vector-effect="non-scaling-stroke"/>
      <path class="cls-6" d="m135.78,505.75l-6.69,2.6" vector-effect="non-scaling-stroke"/>
      <path class="cls-24" d="m129.09,508.35c1.58,9.51,3.69,18.87,6.34,28.1.07.25.33.41.59.35,13.88-3.29,25.33-7.72,37.76,1.53" vector-effect="non-scaling-stroke"/>
      <path class="cls-37" d="m173.78,538.33l3.71,3.71" vector-effect="non-scaling-stroke"/>
      <path class="cls-48" d="m184.74,563.04c4.64,17.59,9.32,35.18,14.04,52.75,1.4,5.21,2.08,9.96,2.04,14.25" vector-effect="non-scaling-stroke"/>
      <path class="cls-5" d="m200.82,630.04c-.97,11.71-6.49,20.47-16.54,26.29" vector-effect="non-scaling-stroke"/>
      <path class="cls-67" d="m184.28,656.33l-4.99,2.36" vector-effect="non-scaling-stroke"/>
      <path class="cls-40" d="m179.29,658.69c-3.86,1.15-7.36,2.76-10.49,4.81" vector-effect="non-scaling-stroke"/>
      <path class="cls-53" d="m614.07,740.29c1.06-1.08,2.25-1.06,3.57.07" vector-effect="non-scaling-stroke"/>
      <path class="cls-17" d="m179.29,658.69c1.98-.28,3.81-.98,5.49-2.11" vector-effect="non-scaling-stroke"/>
      <path class="cls-42" d="m163.2,224.01c-24.7,23.22-33.85,60.63-28.16,93.02.45,2.56,2.14,8.37,5.09,17.43" vector-effect="non-scaling-stroke"/>
      <path class="cls-33" d="m188.55,199.31c-2.63.87-7.45,2.63-14.48,5.27-26.24,9.86-43.02,33.85-47.23,60.86-2.18,13.92.13,27.57,1.45,41.25.51,5.35,1.22,10.23,2.13,14.62,4.49,21.79,9.14,43.47,13.14,65.36,1.59,8.75,3.74,17.37,6.43,25.87" vector-effect="non-scaling-stroke"/>
      <path class="cls-66" d="m149.99,412.54l-2.46,2.29" vector-effect="non-scaling-stroke"/>
      <path class="cls-38" d="m147.53,414.83c-1.4-5.11-3.86-12.9-7.39-23.36-.87-2.57-2.43-3.73-4.7-3.46-.41.05-.62.29-.63.7l-.07,3.33" vector-effect="non-scaling-stroke"/>
      <path class="cls-56" d="m134.74,392.04c-1.36-2.06-3.44-4.22-6.24-6.47-12.91-10.4-27.73-7.15-41.04-.08-.83.44-1.43,1.24-2.18,1.84" vector-effect="non-scaling-stroke"/>
      <path class="cls-33" d="m85.28,387.33l-.42-.29c-.19-.13-.33-.31-.4-.53-1.07-3.23-1.42-6.5-1.07-9.82.85-8.06-1.85-15.34-6.84-21.61-.21-.27-.48-.42-.82-.45-.48-.05-.95,0-1.41.16" vector-effect="non-scaling-stroke"/>
      <path class="cls-39" d="m74.32,354.79c-.39-.48-.55-.98-.49-1.49.04-.39.25-.6.64-.65l9.06-1.15" vector-effect="non-scaling-stroke"/>
      <path class="cls-38" d="m83.53,351.5c9.21-.15,16.24-4.09,21.11-11.82" vector-effect="non-scaling-stroke"/>
      <path class="cls-33" d="m104.64,339.68c5.67-4.65,7.96-10.61,6.85-17.89-.77-5.05-2.08-10.7-3.92-16.96-6.44-21.9-12.35-43.99-18.21-66.05-1.79-6.75-4.42-14.25-6.37-21.49" vector-effect="non-scaling-stroke"/>
      <path class="cls-66" d="m82.99,217.29c.28-1.72.14-3.39-.42-5" vector-effect="non-scaling-stroke"/>
      <path class="cls-38" d="m82.57,212.29l-.54-12.04" vector-effect="non-scaling-stroke"/>
      <path class="cls-38" d="m114.03,177.83v.34c-.02.3.12.42.41.36,13.81-2.81,27.74-4.89,41.53-7.81,14.2-3,27.66-3.98,41.71-4.92.33-.02.63.06.9.24,4.37,2.91,7.65,2.15,13.82,1.4,9.64-1.16,18.93-2.61,28.88-3.55,10.78-1.02,21.51-2.46,32.18-4.32,13.2-2.3,11.11-12.82,6.89-22.25-.39-.87-.33-1.61-.36-2.53" vector-effect="non-scaling-stroke"/>
      <path class="cls-44" d="m173.78,538.33c-8.29-16.06-23.54-7.99-35.4-3.03" vector-effect="non-scaling-stroke"/>
      <path class="cls-50" d="m138.38,535.3c-2.24-10.34-3.86-20.64,7.38-24.08,2.4-.73,4.4-1.03,6.1-3.05,2.28-2.7,6.94-8.74,5.6-12.18-.13-.33-.37-.49-.73-.47-7,.39-14.93,7.33-20.95,10.23" vector-effect="non-scaling-stroke"/>
      <path class="cls-8" d="m146.03,348.25l-.46.04" vector-effect="non-scaling-stroke"/>
      <path class="cls-47" d="m134.74,392.04l.29.54" vector-effect="non-scaling-stroke"/>
      <path class="cls-44" d="m135.03,392.58c.1,1.67-.46,2.99.03,4.57,1.27,4.1,3.14,8.17,4.2,12.05,4.41,16,7.97,32.23,12.32,48.2,3.57,13.11,5.69,21.87.27,33.99" vector-effect="non-scaling-stroke"/>
      <path class="cls-50" d="m82.57,212.29c.28,1.61.18,3.32-.29,5.13" vector-effect="non-scaling-stroke"/>
      <path class="cls-49" d="m82.28,217.42c7.37,28.61,15.01,57.14,22.92,85.59,3.6,12.92,5.07,23.94-.56,36.67" vector-effect="non-scaling-stroke"/>
      <path class="cls-6" d="m83.53,351.5c.32-.59.38-1.2.17-1.85-.11-.36-.33-.44-.66-.25-.32.18-.65.29-.99.32-1.04.11-1.04,0,0-.35,3.73-1.22,6.88-3.34,9.47-6.37" vector-effect="non-scaling-stroke"/>
      <path class="cls-49" d="m91.53,343c4.77-1.11,5.17-3.04,7.25-6.92" vector-effect="non-scaling-stroke"/>
      <path class="cls-6" d="m98.78,336.08c1.83-2.39,2.9-5.07,3.21-8.04" vector-effect="non-scaling-stroke"/>
      <path class="cls-47" d="m101.99,328.04c1.73-5.95.38-12.46-1.13-18.32-6.89-26.79-14.29-53.46-22.2-80-.17-.58-.3-.57-.39.03-.36,2.55-.37,5.07-.03,7.54" vector-effect="non-scaling-stroke"/>
      <path class="cls-6" d="m78.24,237.29l-3.5.5" vector-effect="non-scaling-stroke"/>
      <path class="cls-24" d="m101.99,328.04c-.39-3.32-.7-5.41-.94-6.26-7-24.26-13.73-48.6-20.2-73.01-1-3.79-1.87-7.62-2.61-11.48" vector-effect="non-scaling-stroke"/>
      <path class="cls-47" d="m138.38,535.3c-.17.32-.51.58-1.01.77-.48.19-1.03-.05-1.22-.54-.02-.05-.03-.1-.04-.15-1.86-9.24-4.2-18.25-7.02-27.03" vector-effect="non-scaling-stroke"/>
      <path class="cls-63" d="m85.28,387.33l-1.48,1.28" vector-effect="non-scaling-stroke"/>
      <path class="cls-50" d="m147.53,414.83c1.3,5.07,3.92,12.15,3.95,17.25,0,.57-.25.73-.77.5l-1.27-.56c-.29-.13-.48-.35-.56-.65-.18-.63-.55-1.09-1.1-1.38-.29-.15-.48-.38-.57-.69-2.38-8.4-5.46-18.23-9.23-29.49-.99-2.96-1.98-5.37-2.95-7.23" vector-effect="non-scaling-stroke"/>
      <path class="cls-54" d="m82.99,217.29c-.06,0-.3.04-.71.13" vector-effect="non-scaling-stroke"/>
      <path class="cls-27" d="m647.62,153.68c-2.23.63-3.72,1.38-4.45,2.25-1.5,1.77-2.24,4.21-2.23,7.33,0,.36-.16.62-.48.78l-2.47,1.25" vector-effect="non-scaling-stroke"/>
      <path class="cls-55" d="m637.99,165.29c-16.86-27.57-45.68-44.29-78.05-41.57-4.6.39-11.12,1.69-19.56,3.91-99.06,26.03-198.16,51.92-297.31,77.65-8.13,2.11-15.31,4.19-21.54,6.26-18.09,5.99-32.73,19.99-41.96,36.5" vector-effect="non-scaling-stroke"/>
      <path class="cls-27" d="m179.57,248.04c-.68-.33-1.42-.41-2.21-.24-.4.09-.45-.01-.16-.3l.22-.22c.3-.3.26-.55-.11-.75-1.22-.67-2.56-1.07-4.01-1.2-.96-.09-1.64.3-2.03,1.18-11.25,25.18-14.69,52.48-8.34,79.3,13.01,54.88,28.92,109.13,43.44,163.63,14.49,54.36,29.13,108.68,43.94,162.95,5.8,21.28,13.9,40.95,31.22,54.94" vector-effect="non-scaling-stroke"/>
      <path class="cls-35" d="m281.53,707.33l-.25.5" vector-effect="non-scaling-stroke"/>
      <path class="cls-27" d="m281.28,707.83c-4.63-3.53-8.89-7.44-12.8-11.75-1.74-1.91-3.96-5.04-6.35-7.63-3.81-4.13-7.25-9.01-10.31-14.66" vector-effect="non-scaling-stroke"/>
      <path class="cls-21" d="m251.82,673.79c-2.02-4.05-3.22-6.62-3.61-7.72-10.32-29.21-17.75-59.71-25.46-89.7-1.39-5.41-2.95-10.97-4.68-16.68-4.66-15.4-7.7-29.12-11.86-43.61-4.64-16.15-8.35-31.63-13.33-48.61-1.79-6.12-3.85-13.51-6.17-22.16-10.29-38.49-20.48-77-30.55-115.55-7.63-29.21-3.59-57.62,9.19-84.51.16-.34.09-.62-.21-.84-.84-.63-1.79-.93-2.86-.91" vector-effect="non-scaling-stroke"/>
      <path class="cls-30" d="m637.99,165.29c4.18,7.3,7.34,14.57,9.49,21.81,2.61,8.78,6.71,22.5,10.11,37.59.65,2.88,1.64,5.67,2.98,8.36.17.33.23.67.2,1.04-.11,1.28.21,2.46.94,3.53.18.27.27.56.27.88-.01,3.05,1.52,5.74,2.08,7.74.69,2.43,1.36,4.86,2.01,7.3" vector-effect="non-scaling-stroke"/>
      <path class="cls-36" d="m666.07,253.54c-.13,1.7-.11,2.84.04,3.43,7.36,28.3,15.33,56.42,22.79,84.68,8.15,30.93,16.37,61.85,24.65,92.75,1.38,5.15,2.14,10.98,3.47,16.48.22.9.99,1.22,1.29,2.08.99,2.84,1.72,5.75,2.17,8.73.05.33.17.63.38.9.81,1.05,1.23,2.51,1.26,4.38.02,1.32,1.93,8.99,3.62,10.57" vector-effect="non-scaling-stroke"/>
      <path class="cls-30" d="m725.74,477.54c2.61,8.2,4.06,16.69,6.9,24.74,1.64,4.65,1.51,9.32,3.43,14.26" vector-effect="non-scaling-stroke"/>
      <path class="cls-36" d="m736.07,516.54c1.83,9.61,2.89,18.19,3.19,25.74,1.36,33.5-15.46,64.2-45.98,79-4.17,2.03-10.46,4.19-18.87,6.49-105.69,28.9-211.46,57.55-317.13,86.51-9.2,2.52-19.54,2.92-31.02,1.2-1.24-.18-2.94.36-3.98.02-3.01-.97-6.1-1.75-9.27-2.32" vector-effect="non-scaling-stroke"/>
      <path class="cls-30" d="m313.01,713.18c-23-9.01-39.19-24.44-48.57-46.27-1.71-3.98-3.74-10.32-6.09-19.02-28.21-104.55-56.64-209.05-84.52-313.69-2.43-9.13-3.96-15.62-4.59-19.46-3.65-22.42-.61-46.57,10.33-66.7" vector-effect="non-scaling-stroke"/>
      <path class="cls-29" d="m250.07,677.29l1.75-3.5" vector-effect="non-scaling-stroke"/>
      <path class="cls-45" d="m281.28,707.83c2.36,2.13,4.91,4,7.65,5.6,1.54.9,1.64.76.29-.41-2.41-2.1-4.98-4-7.69-5.69" vector-effect="non-scaling-stroke"/>
      <path class="cls-45" d="m313.01,713.18c14.72,5.96,29.81,6.99,45.26,3.08,29.65-7.49,59.24-15.24,88.76-23.24,48.38-13.11,96.9-25.78,145.18-39.25,15.85-4.42,31.74-8.73,47.65-12.93,12.54-3.31,26.96-7.79,40.58-11.24,7.39-1.87,12.99-3.59,16.78-5.14,35.7-14.64,54.36-56.71,47.06-93.63-.72-3.65-2.05-7.09-4-10.32-.26-.43-.56-.46-.89-.08l-.6.7c-.37.42-.66.37-.88-.15l-1.84-4.44" vector-effect="non-scaling-stroke"/>
      <path class="cls-45" d="m725.74,477.54c-1-5.51-2.07-13.58-3.43-15.16-.22-.25-.35-.55-.39-.89-.48-4.56-2.73-8.81-3.62-12.63-.51-2.21-1.05-4.42-1.61-6.63-.09-.33-.08-.65.03-.97.17-.5.23-.83.2-1-2.25-10.19-5.64-23.79-10.18-40.78-12.87-48.18-23.14-88.5-39.26-144.27-.09-.3-.28-.49-.58-.56-.52-.13-.8-.5-.83-1.11" vector-effect="non-scaling-stroke"/>
      <path class="cls-62" d="m176.07,217.04l-.29-.29" vector-effect="non-scaling-stroke"/>
    </g>
    <circle class="cls-71" cx="538.97" cy="45.52" r="3.3"/>
    <path class="cls-85" d="m755.06,47.31c0,2.76-2.24,5-5,5s-5-2.24-5-5,2.24-5,5-5,5,2.24,5,5Z"/>
    <path class="cls-85" d="m495.54,56.43c-2.94,1.57-6.67.31-8.34-2.81h0c-1.67-3.12-.64-6.93,2.3-8.49,2.94-1.57,6.67-.31,8.34,2.81,1.67,3.12.64,6.93-2.3,8.49Z"/>
    <rect class="cls-71" x="748.54" y="45.8" width="3.34" height="3.02" rx="1.05" ry="1.05" transform="translate(-1.49 49.82) rotate(-3.8)"/>
    <path class="cls-87" d="m652.03,51.5c.99,4,2.49,8.26,3.43,11.84,8.73,33.23,17.59,66.43,26.57,99.59,3.3,12.19,8.74,25.03,22.71,27.88,11.42,2.34,22.04-5.99,26.66-16.16.51-1.11,1.62-1.57,3.34-1.36l9.75,38.75c-8.03.85-15.17,3.76-21.42,8.75l-2.5.5c-21.42.31-26.51-11.63-30.89-29.03-8.96-35.67-30.15-61.52-63.56-77.57-19.41-9.33-40.33-14.45-62.77-15.38-.34-.01-.6.12-.79.41-.64.96-1.48,1.64-2.53,2.03-5.99.54-11.9,1.58-17.73,3.11-31.31,8.25-62.65,16.38-94.02,24.39l-9.1-33.67c60.47-15.99,121.01-31.75,181.6-47.28,11.27-2.89,21.69-1.83,31.25,3.2Z"/>
    <path class="cls-44" d="m564.07,77.75c3.71,7.69.44,17.27-9.29,16.83" vector-effect="non-scaling-stroke"/>
    <ellipse class="cls-71" cx="492.47" cy="50.75" rx="2.98" ry="3.38" transform="translate(3.24 126.63) rotate(-14.7)"/>
    <path class="cls-85" d="m441.59,54.71c0,3.1-2.52,5.62-5.62,5.62s-5.62-2.52-5.62-5.62,2.52-5.62,5.62-5.62,5.62,2.52,5.62,5.62Z"/>
    <path class="cls-72" d="m652.03,51.5c10.66,5.91,16.91,14.16,19.95,25.88,6.29,24.25,12.63,48.47,19.04,72.66,3.57,13.48,8.56,24.51,23.67,26.34,6.24.76,13.08-1.75,18.91-4.23.32-.13.6-.07.83.19.19.22.3.54.31.95-1.72-.21-2.83.25-3.34,1.36-4.62,10.17-15.24,18.5-26.66,16.16-13.97-2.85-19.41-15.69-22.71-27.88-8.98-33.16-17.84-66.36-26.57-99.59-.94-3.58-2.44-7.84-3.43-11.84Z"/>
    <ellipse class="cls-71" cx="436.05" cy="54.43" rx="2.22" ry="2.52" transform="translate(.88 115.47) rotate(-15.1)"/>
    <circle class="cls-83" cx="780.94" cy="63.86" r="4.12"/>
    <path class="cls-85" d="m614.94,70.75c0,3.16-2.57,5.73-5.73,5.73-3.16,0-5.73-2.57-5.73-5.73s2.57-5.73,5.73-5.73c3.16,0,5.73,2.57,5.73,5.73Z"/>
    <circle class="cls-74" cx="609.24" cy="71.11" r="2.52"/>
    <path class="cls-85" d="m350.36,76.73c0,3.03-2.46,5.49-5.49,5.49s-5.49-2.46-5.49-5.49,2.46-5.49,5.49-5.49,5.49,2.46,5.49,5.49Z"/>
    <ellipse class="cls-83" cx="765.47" cy="73.59" rx="1.74" ry="2.19" transform="translate(522.85 803.31) rotate(-77.1)"/>
    <path class="cls-93" d="m564.07,77.75c3.71,7.69.44,17.27-9.29,16.83-5.14-1.1-8.2-3.89-9.18-8.37-2.45-11.24,11.7-17.65,18.47-8.46Z"/>
    <path class="cls-22" d="m557.74,77.44c.75,3.85.22,7.39-1.57,10.63-.59,1.07-1.95,1.46-3.02.87-.05-.03-.1-.06-.15-.09-1.85-1.21-3.16-2.98-3.93-5.31" vector-effect="non-scaling-stroke"/>
    <circle class="cls-94" cx="344.68" cy="76.72" r="2.42"/>
    <path class="cls-82" d="m557.74,77.44c.75,3.85.22,7.39-1.57,10.63-.59,1.07-1.95,1.46-3.02.87-.05-.03-.1-.06-.15-.09-1.85-1.21-3.16-2.98-3.93-5.31,1.57-3.94,4.46-5.97,8.67-6.1Z"/>
    <path class="cls-78" d="m557.74,77.44c4.05,1.82,5.44,4.72,4.15,8.7-2.36,7.29-13.42,6.38-12.82-2.6.77,2.33,2.08,4.1,3.93,5.31,1.03.67,2.41.39,3.08-.63.03-.05.06-.1.09-.15,1.79-3.24,2.32-6.78,1.57-10.63Z"/>
    <path class="cls-77" d="m564.07,77.75c2.87,1.55,4.7,3.65,5.49,6.28,2.58,8.67-7.29,14.3-14.78,10.55,9.73.44,13-9.14,9.29-16.83Z"/>
    <path class="cls-93" d="m513.68,105.81c-4.2,4.3-11.29,4.18-15.84-.26h0c-4.55-4.44-4.84-11.53-.65-15.83,4.2-4.3,11.29-4.18,15.84.26h0c4.55,4.44,4.84,11.53.65,15.83Z"/>
    <path class="cls-22" d="m507.03,91.33c-2.54,2.25-1.22,7.43-1.26,10.44,0,.4-.33.72-.73.71-.1,0-.19-.02-.28-.06-3.71-1.65-5.58-4.56-5.62-8.71" vector-effect="non-scaling-stroke"/>
    <path class="cls-85" d="m385.23,95.25c0,4.06-3.29,7.35-7.35,7.35s-7.35-3.29-7.35-7.35,3.29-7.35,7.35-7.35h0c4.06,0,7.35,3.29,7.35,7.35h0Z"/>
    <path class="cls-85" d="m713.31,99.01c-2.02,1.8-5.21,1.52-7.12-.62-1.91-2.14-1.82-5.34.2-7.14,2.02-1.8,5.21-1.52,7.12.62h0c1.91,2.14,1.82,5.34-.2,7.14Z"/>
    <circle class="cls-80" cx="377.76" cy="95.13" r="4.4"/>
    <path class="cls-82" d="m507.03,91.33c-2.54,2.25-1.22,7.43-1.26,10.44,0,.4-.33.72-.73.71-.1,0-.19-.02-.28-.06-3.71-1.65-5.58-4.56-5.62-8.71.98-3.39,4.96-3.22,7.89-2.38Z"/>
    <path class="cls-78" d="m507.03,91.33c5.7-.05,6.51,7.47,4.14,10.91-5.89,8.57-18.18-1.14-12.03-8.53.04,4.15,1.91,7.06,5.62,8.71.36.16.79,0,.95-.37.04-.09.06-.18.06-.28.04-3.01-1.28-8.19,1.26-10.44Z"/>
    <path class="cls-71" d="m708.28,94.53c-.16-.64.22-1.3.86-1.46.23-.06.47-.05.7.03,1.51.53,2.06,1.59,1.64,3.16-.09.35-.32.53-.69.53h-1.35c-.39,0-.64-.19-.73-.57l-.43-1.69Z"/>
    <path class="cls-96" d="m439.18,95.58l9.1,33.67-7.17,1.87c-.3.08-.49-.03-.57-.33l-8.42-32.58c-.1-.39.04-.63.42-.74l6.64-1.89Z"/>
    <path class="cls-85" d="m402.26,110.83c-3.11,1.21-6.66-.46-7.94-3.73h0c-1.28-3.27.21-6.91,3.32-8.12,3.11-1.21,6.66.46,7.94,3.73h0c1.28,3.27-.21,6.91-3.32,8.12Z"/>
    <path class="cls-88" d="m720.57,221.29c-1.16,2.61-2.97,4.81-5.44,6.62-7.9,5.78-9.25,15.51-6.87,24.64,6.39,24.43,12.77,48.87,19.14,73.32,1.86,7.12,4.22,18.77,8.64,24.71,8.89,11.93,20.35,8.25,32.74,4.75l7.31-2.22c.35-.11.72.09.83.44,0,.01,0,.02,0,.03l9.29,35.49c.06.23-.08.47-.31.53-.1.03-.21.02-.3-.03l-.46-.22c-.11-.05-.23-.07-.35-.06-6.23.75-11.95,2.78-17.14,6.09-9.5,3.05-14.56,9.49-15.17,19.3-.08,1.21.05,2.58.39,4.12,5.87,26.72,13.01,53.24,20.16,79.65,3.44,12.74,10.89,20.28,25.25,19.41,2.11-.13,7.04-1.25,14.78-3.36.48-.66.99-.88,1.54-.66.34.13.55.37.64.72l9.55,37.47c.09.33-.11.66-.43.75-.02,0-.04,0-.06.01-13.5,2.2-27.54,6.6-28.77,22.23-.65,2.52-.75,4.7-.32,6.54,3.13,13.21,7.99,31.7,14.57,55.47,5.21,18.81-4.98,45.69-23.52,53.87-1.86.83-4.23,1.61-7.12,2.36-52.31,13.56-104.38,26.67-156.88,40.95-.78.21-1.26-.08-1.44-.87-1.83-8.08-4.09-16.27-6.77-24.56-2.45-7.58-7.29-12.28-13.68-17.23-1.89-1.47-3.28-1.18-4.15.86-5.21-2.44-10.77-3.41-16.7-2.91l.31-.82c.11-.29.32-.47.61-.55,62.89-16.64,103.14-27.6,120.77-32.89,25.17-7.54,42.84-22.54,56.76-44.72,13.43-21.41,18.7-44.43,15.81-69.05-.55-4.67-1.9-11.18-4.05-19.55-5.5-21.42-14.23-54.46-26.2-99.13-18.09-67.51-36.15-135.03-54.2-202.55-2.18-8.15-5.13-20.81-8.55-30.7-5.47-15.84-13.7-30.28-24.69-43.31-2.7-3.2-5.39-5.43-8.06-6.69-22.41-24.53-53.68-39.65-88.01-37.79,1.05-.39,1.89-1.07,2.53-2.03.19-.29.45-.42.79-.41,22.44.93,43.36,6.05,62.77,15.38,33.41,16.05,54.6,41.9,63.56,77.57,4.38,17.4,9.47,29.34,30.89,29.03Z"/>
    <path class="cls-85" d="m856.59,107.85c0,3.74-3.03,6.77-6.77,6.77h0c-3.74,0-6.77-3.03-6.77-6.77s3.03-6.77,6.77-6.77c3.74,0,6.77,3.03,6.77,6.77h0Z"/>
    <path class="cls-85" d="m288.27,107.11c0,3.15-2.55,5.7-5.7,5.7-3.15,0-5.7-2.55-5.7-5.7h0c0-3.15,2.55-5.7,5.7-5.7h0c3.15,0,5.7,2.55,5.7,5.7Z"/>
    <circle class="cls-71" cx="399.84" cy="104.81" r="3.2"/>
    <ellipse class="cls-71" cx="849.85" cy="107.79" rx="3.77" ry="4.02" transform="translate(-1.91 16.33) rotate(-1.1)"/>
    <ellipse class="cls-71" cx="282.64" cy="106.97" rx="2.38" ry="2.72" transform="translate(-15.9 60.06) rotate(-11.8)"/>
    <path class="cls-82" d="m647.62,153.68c-2.23.63-3.72,1.38-4.45,2.25-1.5,1.77-2.24,4.21-2.23,7.33,0,.36-.16.62-.48.78l-2.47,1.25c-16.86-27.57-45.68-44.29-78.05-41.57-4.6.39-11.12,1.69-19.56,3.91-99.06,26.03-198.16,51.92-297.31,77.65-8.13,2.11-15.31,4.19-21.54,6.26-18.09,5.99-32.73,19.99-41.96,36.5-.68-.33-1.42-.41-2.21-.24-.4.09-.45-.01-.16-.3l.22-.22c.3-.3.26-.55-.11-.75-1.22-.67-2.56-1.07-4.01-1.2-.96-.09-1.64.3-2.03,1.18-11.25,25.18-14.69,52.48-8.34,79.3,13.01,54.88,28.92,109.13,43.44,163.63,14.49,54.36,29.13,108.68,43.94,162.95,5.8,21.28,13.9,40.95,31.22,54.94l-.25.5c-4.63-3.53-8.89-7.44-12.8-11.75-1.74-1.91-3.96-5.04-6.35-7.63-3.81-4.13-7.25-9.01-10.31-14.66-2.02-4.05-3.22-6.62-3.61-7.72-10.32-29.21-17.75-59.71-25.46-89.7-1.39-5.41-2.95-10.97-4.68-16.68-4.66-15.4-7.7-29.12-11.86-43.61-4.64-16.15-8.35-31.63-13.33-48.61-1.79-6.12-3.85-13.51-6.17-22.16-10.29-38.49-20.48-77-30.55-115.55-7.63-29.21-3.59-57.62,9.19-84.51.16-.34.09-.62-.21-.84-.84-.63-1.79-.93-2.86-.91,11.96-25.38,34.65-42.1,61.47-49.06,103.44-26.83,206.83-53.86,310.17-81.08,8.99-2.37,15.48-3.83,19.48-4.38,38.52-5.3,73.8,11.86,94.22,44.7Z"/>
    <path class="cls-85" d="m741.83,109.12c3.22.76,5.56,2.63,7.01,5.6.97,10.49-12.66,10.39-13.07,1.58-.18-3.85,1.84-6.24,6.06-7.18Z"/>
    <path class="cls-85" d="m230.85,118.62c0,4.69-3.81,8.5-8.5,8.5s-8.5-3.81-8.5-8.5,3.81-8.5,8.5-8.5,8.5,3.81,8.5,8.5Z"/>
    <ellipse class="cls-89" cx="474.42" cy="113.77" rx="2.86" ry="3.18" transform="translate(85.38 408.16) rotate(-50.6)"/>
    <path class="cls-85" d="m721.19,118.92c0,3.6-2.91,6.51-6.51,6.51-3.6,0-6.51-2.91-6.51-6.51h0c0-3.6,2.91-6.51,6.51-6.51h0c3.6,0,6.51,2.91,6.51,6.51Z"/>
    <ellipse class="cls-96" cx="742.25" cy="116.25" rx="3.54" ry="3.92" transform="translate(-5.84 185.63) rotate(-14.2)"/>
    <circle class="cls-91" cx="222.13" cy="118.5" r="5.72"/>
    <path class="cls-85" d="m373.8,128.37c0,8.21-6.66,14.87-14.87,14.87s-14.87-6.66-14.87-14.87,6.66-14.87,14.87-14.87,14.87,6.66,14.87,14.87Z"/>
    <path class="cls-16" d="m366.78,119.58c1.21,9.26-2.08,16.34-9.89,21.24" vector-effect="non-scaling-stroke"/>
    <circle class="cls-71" cx="714.62" cy="118.84" r="3.59"/>
    <path class="cls-80" d="m366.78,119.58c1.21,9.26-2.08,16.34-9.89,21.24-21.86-6.95-4.23-34.97,9.89-21.24Z"/>
    <path class="cls-73" d="m366.78,119.58c10.03,8.1,2.93,22.89-9.89,21.24,7.81-4.9,11.1-11.98,9.89-21.24Z"/>
    <path class="cls-85" d="m391.37,130.62c-2.14,1.53-5.18.93-6.79-1.32h0c-1.61-2.26-1.18-5.32.96-6.85h0c2.14-1.53,5.18-.93,6.79,1.32,1.61,2.26,1.18,5.32-.96,6.85Z"/>
    <path class="cls-93" d="m637.99,165.29c4.18,7.3,7.34,14.57,9.49,21.81,2.61,8.78,6.71,22.5,10.11,37.59.65,2.88,1.64,5.67,2.98,8.36.17.33.23.67.2,1.04-.11,1.28.21,2.46.94,3.53.18.27.27.56.27.88-.01,3.05,1.52,5.74,2.08,7.74.69,2.43,1.36,4.86,2.01,7.3-.13,1.7-.11,2.84.04,3.43,7.36,28.3,15.33,56.42,22.79,84.68,8.15,30.93,16.37,61.85,24.65,92.75,1.38,5.15,2.14,10.98,3.47,16.48.22.9.99,1.22,1.29,2.08.99,2.84,1.72,5.75,2.17,8.73.05.33.17.63.38.9.81,1.05,1.23,2.51,1.26,4.38.02,1.32,1.93,8.99,3.62,10.57,2.61,8.2,4.06,16.69,6.9,24.74,1.64,4.65,1.51,9.32,3.43,14.26,1.83,9.61,2.89,18.19,3.19,25.74,1.36,33.5-15.46,64.2-45.98,79-4.17,2.03-10.46,4.19-18.87,6.49-105.69,28.9-211.46,57.55-317.13,86.51-9.2,2.52-19.54,2.92-31.02,1.2-1.24-.18-2.94.36-3.98.02-3.01-.97-6.1-1.75-9.27-2.32-23-9.01-39.19-24.44-48.57-46.27-1.71-3.98-3.74-10.32-6.09-19.02-28.21-104.55-56.64-209.05-84.52-313.69-2.43-9.13-3.96-15.62-4.59-19.46-3.65-22.42-.61-46.57,10.33-66.7,9.23-16.51,23.87-30.51,41.96-36.5,6.23-2.07,13.41-4.15,21.54-6.26,99.15-25.73,198.25-51.62,297.31-77.65,8.44-2.22,14.96-3.52,19.56-3.91,32.37-2.72,61.19,14,78.05,41.57Z"/>
    <g>
      <path class="cls-4" d="m716.53,595.58c-1.02-1.02-1.59-2.26-1.71-3.72-.03-.38-.23-.61-.6-.7-1.49-.37-2.58-1.28-3.28-2.72" vector-effect="non-scaling-stroke"/>
      <path class="cls-18" d="m710.94,588.44c12.12-15.8,12.82-35.97,9.05-54.9" vector-effect="non-scaling-stroke"/>
      <path class="cls-4" d="m719.99,533.54c-1.61-9.74-4.1-20.57-7.47-32.5-4-14.17-11.6-43.15-22.81-86.94-2.17-8.5-4.28-15.3-6.32-20.39" vector-effect="non-scaling-stroke"/>
      <path class="cls-11" d="m683.39,393.71c-1.03-4.85-1.78-9.86-3.02-14.52-15.31-57.57-30.67-115.13-46.06-172.68-2.37-8.85-4.34-15.22-5.91-19.09-12.41-30.54-39.03-53.56-72.91-55.74-.68-.05-1.03-.52-1.3-1.09" vector-effect="non-scaling-stroke"/>
      <path class="cls-34" d="m683.39,393.71c-4.17,51.04-45.79,83.28-85.48,107.76-17.25,10.63-35.28,19.75-54.11,27.35-.54.22-1.21.86-2.02,1.93" vector-effect="non-scaling-stroke"/>
      <path class="cls-12" d="m541.78,530.75l-1.04-.21" vector-effect="non-scaling-stroke"/>
      <path class="cls-31" d="m540.74,530.54c24.23-37.06,24.7-83.43,17.51-125.55-.09-.53.13-.85.66-.94,2.98-.52,12.09-1.41,8.01-7.05-.19-.25-.44-.4-.75-.45-.77-.12-1.54-.08-2.31.12-67.51,17.54-135.04,34.99-202.59,52.35-1.14.29-2.17.77-3.08,1.45-.26.2-.43.46-.52.77-1.9,7.41,9.08,2.83,11.63,1.93.35-.13.57-.01.67.34,10.13,37.05,28.18,84.2,64.03,103.97" vector-effect="non-scaling-stroke"/>
      <path class="cls-34" d="m434,557.48c-23.99,1.25-47.98,1.05-71.98-.6-14.48-.99-28.8-3.04-42.97-6.13-26.12-5.71-46.99-18.07-55.09-45.02-1.16-3.86-2.27-7.73-3.34-11.62-1.84-6.68-4.54-14.46-6.45-21.81-1.31-5.05-3.89-12.3-4.85-18.76" vector-effect="non-scaling-stroke"/>
      <path class="cls-68" d="m249.32,453.54l.71,1.29" vector-effect="non-scaling-stroke"/>
      <path class="cls-61" d="m250.03,454.83c.26,1.53.83,2.94,1.71,4.21" vector-effect="non-scaling-stroke"/>
      <path class="cls-68" d="m251.74,459.04c-.13,1,.1,1.85.69,2.54.21.25.36.52.45.83,2.92,9.97,5.63,20.54,10.38,29.93.17.32.43.51.78.56,1.51.24,2.85-.19,4-1.28.26-.25.4-.55.42-.91.09-1.74.22-3.65-.23-5.4-3.43-13.62-7.35-27.61-10.57-40.74-8.21-33.48-16.41-66.92-25.43-100.2-4.21-15.52-6.37-26.99-6.15-41.6.46-31.12,9.34-67.67,45.18-73.68,3.27-.55,8.78-.74,16.54-.55,9.87.23,18.45-.02,25.73-.73,29.36-2.89,59.86-8.82,91.5-17.77,24.9-7.04,58.06-21.49,52.21-53.75" vector-effect="non-scaling-stroke"/>
      <path class="cls-65" d="m434,557.48l3.53,2.1" vector-effect="non-scaling-stroke"/>
      <path class="cls-19" d="m437.53,559.58c.11.71.43,1.22.95,1.52,31.52,18.3,69.5,11.64,93.73-15.11,2.88-3.18,8.94-10.33,10.37-14.54.11-.33,0-.55-.32-.66-.15-.05-.31-.06-.48-.04" vector-effect="non-scaling-stroke"/>
      <path class="cls-19" d="m719.99,533.54c-.69.18-1.37.13-2.04-.14-.33-.13-.56-.03-.69.3-2.03,5.51-1.21,13.7-2.11,19.43-2.39,15.11-9.21,27.54-20.46,37.28-7.85,6.8-16.84,10.06-26.98,12.78-78.8,21.16-186.86,51.12-280.46,76.35-10.83,2.92-27.84,8.09-40.46,10.76-13.41,2.84-26.78,2.32-40.11-1.57-.29-.09-.59.08-.67.36-.03.09-.03.19,0,.28.22,1.01.79,1.92,1.72,2.74,14.52,12.74,34.46,9.96,51.83,5.26,85.89-23.27,171.75-46.67,257.58-70.18,22.5-6.16,48.51-12.65,64.7-17.81,11.43-3.65,21.13-10.63,29.11-20.94" vector-effect="non-scaling-stroke"/>
      <path class="cls-9" d="m251.74,459.04c.03-1.67-.54-3.08-1.71-4.21" vector-effect="non-scaling-stroke"/>
      <path class="cls-64" d="m249.32,453.54c-11.87-38.49-22.87-77.3-34.19-115.96-11.52-39.35-11.03-92.92,24.69-120.04" vector-effect="non-scaling-stroke"/>
      <path class="cls-2" d="m239.82,217.54l12.74-7.71" vector-effect="non-scaling-stroke"/>
      <path class="cls-43" d="m540.74,530.54c-23.57,33.75-65.64,47.23-103.21,29.04" vector-effect="non-scaling-stroke"/>
      <path class="cls-19" d="m239.82,217.54c-1.18-1.35-2.27-1.84-3.27-1.49-29.66,10.55-50.81,34.99-57.39,65.59-4.39,20.38,4.36,44.8,10.16,64.86,19.91,68.85,39.38,137.82,58.42,206.91,10.34,37.52,20.53,75.09,30.77,112.63,1.63,5.97,4.88,12.77,9.76,20.42.18.28.22.58.12.9l-.36,1.14" vector-effect="non-scaling-stroke"/>
    </g>
    <ellipse class="cls-71" cx="388.23" cy="126.31" rx="1.62" ry="1.82" transform="translate(-16.08 182.97) rotate(-26)"/>
    <rect class="cls-77" x="301.5" y="129.21" width=".62" height="37.38" rx=".29" ry=".29" transform="translate(-27.77 82) rotate(-14.8)"/>
    <path class="cls-91" d="m716.53,595.58c-1.02-1.02-1.59-2.26-1.71-3.72-.03-.38-.23-.61-.6-.7-1.49-.37-2.58-1.28-3.28-2.72,12.12-15.8,12.82-35.97,9.05-54.9-1.61-9.74-4.1-20.57-7.47-32.5-4-14.17-11.6-43.15-22.81-86.94-2.17-8.5-4.28-15.3-6.32-20.39-1.03-4.85-1.78-9.86-3.02-14.52-15.31-57.57-30.67-115.13-46.06-172.68-2.37-8.85-4.34-15.22-5.91-19.09-12.41-30.54-39.03-53.56-72.91-55.74-.68-.05-1.03-.52-1.3-1.09,38.19-5.47,71.11,17.34,84.72,51.97,1.39,3.52,3.31,9.9,5.76,19.13,28.19,106.13,56.52,212.22,84.98,318.27,7.33,27.32,4.71,53.34-13.12,75.62Z"/>
    <path class="cls-80" d="m554.19,130.59c.27.57.62,1.04,1.3,1.09,33.88,2.18,60.5,25.2,72.91,55.74,1.57,3.87,3.54,10.24,5.91,19.09,15.39,57.55,30.75,115.11,46.06,172.68,1.24,4.66,1.99,9.67,3.02,14.52-4.17,51.04-45.79,83.28-85.48,107.76-17.25,10.63-35.28,19.75-54.11,27.35-.54.22-1.21.86-2.02,1.93l-1.04-.21c24.23-37.06,24.7-83.43,17.51-125.55-.09-.53.13-.85.66-.94,2.98-.52,12.09-1.41,8.01-7.05-.19-.25-.44-.4-.75-.45-.77-.12-1.54-.08-2.31.12-67.51,17.54-135.04,34.99-202.59,52.35-1.14.29-2.17.77-3.08,1.45-.26.2-.43.46-.52.77-1.9,7.41,9.08,2.83,11.63,1.93.35-.13.57-.01.67.34,10.13,37.05,28.18,84.2,64.03,103.97-23.99,1.25-47.98,1.05-71.98-.6-14.48-.99-28.8-3.04-42.97-6.13-26.12-5.71-46.99-18.07-55.09-45.02-1.16-3.86-2.27-7.73-3.34-11.62-1.84-6.68-4.54-14.46-6.45-21.81-1.31-5.05-3.89-12.3-4.85-18.76l.71,1.29c.26,1.53.83,2.94,1.71,4.21-.13,1,.1,1.85.69,2.54.21.25.36.52.45.83,2.92,9.97,5.63,20.54,10.38,29.93.17.32.43.51.78.56,1.51.24,2.85-.19,4-1.28.26-.25.4-.55.42-.91.09-1.74.22-3.65-.23-5.4-3.43-13.62-7.35-27.61-10.57-40.74-8.21-33.48-16.41-66.92-25.43-100.2-4.21-15.52-6.37-26.99-6.15-41.6.46-31.12,9.34-67.67,45.18-73.68,3.27-.55,8.78-.74,16.54-.55,9.87.23,18.45-.02,25.73-.73,29.36-2.89,59.86-8.82,91.5-17.77,24.9-7.04,58.06-21.49,52.21-53.75l96.95-25.7Z"/>
    <path class="cls-85" d="m172.88,136.94c0,2.87-2.33,5.2-5.2,5.2h0c-2.87,0-5.2-2.33-5.2-5.2h0c0-2.87,2.33-5.2,5.2-5.2s5.2,2.33,5.2,5.2h0Z"/>
    <path class="cls-87" d="m188.55,199.31c-2.63.87-7.45,2.63-14.48,5.27-26.24,9.86-43.02,33.85-47.23,60.86-2.18,13.92.13,27.57,1.45,41.25.51,5.35,1.22,10.23,2.13,14.62,4.49,21.79,9.14,43.47,13.14,65.36,1.59,8.75,3.74,17.37,6.43,25.87l-2.46,2.29c-1.4-5.11-3.86-12.9-7.39-23.36-.87-2.57-2.43-3.73-4.7-3.46-.41.05-.62.29-.63.7l-.07,3.33c-1.36-2.06-3.44-4.22-6.24-6.47-12.91-10.4-27.73-7.15-41.04-.08-.83.44-1.43,1.24-2.18,1.84l-.42-.29c-.19-.13-.33-.31-.4-.53-1.07-3.23-1.42-6.5-1.07-9.82.85-8.06-1.85-15.34-6.84-21.61-.21-.27-.48-.42-.82-.45-.48-.05-.95,0-1.41.16-.39-.48-.55-.98-.49-1.49.04-.39.25-.6.64-.65l9.06-1.15c9.21-.15,16.24-4.09,21.11-11.82,5.67-4.65,7.96-10.61,6.85-17.89-.77-5.05-2.08-10.7-3.92-16.96-6.44-21.9-12.35-43.99-18.21-66.05-1.79-6.75-4.42-14.25-6.37-21.49.28-1.72.14-3.39-.42-5l-.54-12.04c7.21-12.33,17.88-19.81,32-22.42v.34c-.02.3.12.42.41.36,13.81-2.81,27.74-4.89,41.53-7.81,14.2-3,27.66-3.98,41.71-4.92.33-.02.63.06.9.24,4.37,2.91,7.65,2.15,13.82,1.4,9.64-1.16,18.93-2.61,28.88-3.55,10.78-1.02,21.51-2.46,32.18-4.32,13.2-2.3,11.11-12.82,6.89-22.25-.39-.87-.33-1.61-.36-2.53l8.31-2.4c.35-.1.58.03.67.38l9.07,35.44c.04.17-.06.35-.24.4-30.04,7.89-60.05,15.78-90.02,23.68-5.57,1.47-11.98,3.81-19.23,7.02Z"/>
    <path class="cls-85" d="m755.09,154.88c-5.3,1.62-10.95-1.49-12.62-6.95-1.67-5.46,1.28-11.2,6.58-12.82h0c5.3-1.62,10.95,1.49,12.62,6.95s-1.28,11.2-6.58,12.82Z"/>
    <path class="cls-41" d="m759.24,145.29c-2.84.04-6.35.45-8.69-.9-1.82-1.04-3.07-2.76-3.75-5.15" vector-effect="non-scaling-stroke"/>
    <ellipse class="cls-71" cx="167.48" cy="136.86" rx="1.86" ry="2.2" transform="translate(-23.57 35.47) rotate(-11.3)"/>
    <path class="cls-72" d="m279.99,134.79c.03.92-.03,1.66.36,2.53,4.22,9.43,6.31,19.95-6.89,22.25-10.67,1.86-21.4,3.3-32.18,4.32-9.95.94-19.24,2.39-28.88,3.55-6.17.75-9.45,1.51-13.82-1.4-.27-.18-.57-.26-.9-.24-14.05.94-27.51,1.92-41.71,4.92-13.79,2.92-27.72,5-41.53,7.81-.29.06-.43-.06-.42-.36v-.34s165.97-43.04,165.97-43.04Z"/>
    <path class="cls-85" d="m724.34,143.78c0,3.65-2.95,6.6-6.6,6.6s-6.6-2.95-6.6-6.6h0c0-3.65,2.95-6.6,6.6-6.6h0c3.65,0,6.6,2.95,6.6,6.6Z"/>
    <path class="cls-71" d="m759.24,145.29c-2.84.04-6.35.45-8.69-.9-1.82-1.04-3.07-2.76-3.75-5.15,5.29-3.9,12.66-.96,12.44,6.05Z"/>
    <path class="cls-96" d="m746.8,139.24c.68,2.39,1.93,4.11,3.75,5.15,2.34,1.35,5.85.94,8.69.9-.17,14.49-22.44,5.14-12.44-6.05Z"/>
    <path class="cls-81" d="m648.04,139.54c2.67,1.26,5.36,3.49,8.06,6.69,10.99,13.03,19.22,27.47,24.69,43.31,3.42,9.89,6.37,22.55,8.55,30.7,18.05,67.52,36.11,135.04,54.2,202.55,11.97,44.67,20.7,77.71,26.2,99.13,2.15,8.37,3.5,14.88,4.05,19.55,2.89,24.62-2.38,47.64-15.81,69.05-13.92,22.18-31.59,37.18-56.76,44.72-17.63,5.29-57.88,16.25-120.77,32.89-.29.08-.5.26-.61.55l-.31.82-110.05,29.58c-34.38,8.57-68.36,18.42-102.68,27.16-7.7,1.96-13.96,3.09-18.77,3.39-47.91,3-98.23-31.64-114.96-76.09l2,.37c.33.06.58.23.74.52,2.68,4.81,5.41,9.57,8.18,14.27,21.35,36.19,63,54.98,103.96,48.96,4.27-.63,10.77-2.09,19.5-4.39,65.8-17.34,131.37-35.55,197.01-53.5,46.12-12.61,91.41-24.61,133.3-36.52,46.21-13.15,71.04-62.49,64.86-107.88-.58-4.28-2.05-10.77-4.42-19.48-29.99-110.25-59.6-220.61-88.83-331.06-3.13-11.84-7.26-21.92-12.38-30.24-4.61-7.5-7.6-12.52-8.95-15.05Z"/>
    <circle class="cls-96" cx="717.88" cy="143.65" r="3.76"/>
    <path class="cls-85" d="m329.99,149.04c0,3.15-2.55,5.7-5.7,5.7-3.15,0-5.7-2.55-5.7-5.7h0c0-3.15,2.55-5.7,5.7-5.7h0c3.15,0,5.7,2.55,5.7,5.7Z"/>
    <ellipse class="cls-95" cx="324.29" cy="148.84" rx="2.47" ry="2.85" transform="translate(-21.54 60.99) rotate(-10.4)"/>
    <path class="cls-84" d="m647.62,153.68c7.97,13.09,11.69,25.55,15.59,40.19,28.84,108.51,57.7,217,86.58,325.49,2.26,8.51,3.64,15.02,4.15,19.53,5.43,48.22-23.03,88.67-69.84,101.51-103.61,28.42-207.27,56.65-310.99,84.68-10.96,2.96-17.41,4.64-19.35,5.03-43,8.68-84.12-14.26-103.69-52.82l1.75-3.5c3.06,5.65,6.5,10.53,10.31,14.66,2.39,2.59,4.61,5.72,6.35,7.63,3.91,4.31,8.17,8.22,12.8,11.75,2.36,2.13,4.91,4,7.65,5.6,1.54.9,1.64.76.29-.41-2.41-2.1-4.98-4-7.69-5.69-17.32-13.99-25.42-33.66-31.22-54.94-14.81-54.27-29.45-108.59-43.94-162.95-14.52-54.5-30.43-108.75-43.44-163.63-6.35-26.82-2.91-54.12,8.34-79.3.39-.88,1.07-1.27,2.03-1.18,1.45.13,2.79.53,4.01,1.2.37.2.41.45.11.75l-.22.22c-.29.29-.24.39.16.3.79-.17,1.53-.09,2.21.24-10.94,20.13-13.98,44.28-10.33,66.7.63,3.84,2.16,10.33,4.59,19.46,27.88,104.64,56.31,209.14,84.52,313.69,2.35,8.7,4.38,15.04,6.09,19.02,9.38,21.83,25.57,37.26,48.57,46.27,14.72,5.96,29.81,6.99,45.26,3.08,29.65-7.49,59.24-15.24,88.76-23.24,48.38-13.11,96.9-25.78,145.18-39.25,15.85-4.42,31.74-8.73,47.65-12.93,12.54-3.31,26.96-7.79,40.58-11.24,7.39-1.87,12.99-3.59,16.78-5.14,35.7-14.64,54.36-56.71,47.06-93.63-.72-3.65-2.05-7.09-4-10.32-.26-.43-.56-.46-.89-.08l-.6.7c-.37.42-.66.37-.88-.15l-1.84-4.44c-1.92-4.94-1.79-9.61-3.43-14.26-2.84-8.05-4.29-16.54-6.9-24.74-1-5.51-2.07-13.58-3.43-15.16-.22-.25-.35-.55-.39-.89-.48-4.56-2.73-8.81-3.62-12.63-.51-2.21-1.05-4.42-1.61-6.63-.09-.33-.08-.65.03-.97.17-.5.23-.83.2-1-2.25-10.19-5.64-23.79-10.18-40.78-12.87-48.18-23.14-88.5-39.26-144.27-.09-.3-.28-.49-.58-.56-.52-.13-.8-.5-.83-1.11-.65-2.44-1.32-4.87-2.01-7.3-.56-2-2.09-4.69-2.08-7.74,0-.32-.09-.61-.27-.88-.73-1.07-1.05-2.25-.94-3.53.03-.37-.03-.71-.2-1.04-1.34-2.69-2.33-5.48-2.98-8.36-3.4-15.09-7.5-28.81-10.11-37.59-2.15-7.24-5.31-14.51-9.49-21.81l2.47-1.25c.32-.16.48-.42.48-.78-.01-3.12.73-5.56,2.23-7.33.73-.87,2.22-1.62,4.45-2.25Z"/>
    <path class="cls-94" d="m457.24,156.29c5.85,32.26-27.31,46.71-52.21,53.75-31.64,8.95-62.14,14.88-91.5,17.77-7.28.71-15.86.96-25.73.73-7.76-.19-13.27,0-16.54.55-35.84,6.01-44.72,42.56-45.18,73.68-.22,14.61,1.94,26.08,6.15,41.6,9.02,33.28,17.22,66.72,25.43,100.2,3.22,13.13,7.14,27.12,10.57,40.74.45,1.75.32,3.66.23,5.4-.02.36-.16.66-.42.91-1.15,1.09-2.49,1.52-4,1.28-.35-.05-.61-.24-.78-.56-4.75-9.39-7.46-19.96-10.38-29.93-.09-.31-.24-.58-.45-.83-.59-.69-.82-1.54-.69-2.54.03-1.67-.54-3.08-1.71-4.21l-.71-1.29c-11.87-38.49-22.87-77.3-34.19-115.96-11.52-39.35-11.03-92.92,24.69-120.04l12.74-7.71c3.24-1.08,6.54-2.05,9.89-2.92,64.95-16.78,129.88-33.65,194.79-50.62Z"/>
    <path class="cls-85" d="m190.56,181.18c0,6.2-5.02,11.22-11.22,11.22s-11.22-5.02-11.22-11.22c0-6.2,5.02-11.22,11.22-11.22h0c6.2,0,11.22,5.02,11.22,11.22h0Z"/>
    <circle class="cls-78" cx="178.89" cy="181.21" r="7.93"/>
    <path class="cls-85" d="m140.7,196.09c0,3.66-2.96,6.62-6.62,6.62h0c-3.66,0-6.62-2.96-6.62-6.62h0c0-3.66,2.96-6.62,6.62-6.62h0c3.66,0,6.62,2.96,6.62,6.62Z"/>
    <ellipse class="cls-92" cx="133.95" cy="196.14" rx="3.55" ry="4" transform="translate(-40.13 34.55) rotate(-12.8)"/>
    <path class="cls-76" d="m188.55,199.31l-14.06,9.48c-31.52,22.61-51.57,61.97-43.18,100.73,1.79,8.27,4.73,16.58,8.82,24.94,2.34,4.39,4.15,9,5.44,13.83,2.43,10.69,4.6,21.44,6.49,32.25.46,2.63,1.13,5.24,2.01,7.82.1.31.04.58-.17.81-1.22,1.31-1.22,2.45,0,3.42.23.19.38.43.43.72.99,5.91,4.71,9.7,6,15.17,3.59,15.21,6.49,28.48,8.72,39.81.54,2.75,1.3,5.18,2.27,7.29.14.31.38.46.73.46.83-.02,1.38.33,1.65,1.04.09.22.24.37.47.46.22.08.41.08.58,0l8.33,32.25c-.15.42-.41.59-.78.51-.31-.07-.47-.26-.48-.57-.1-1.93-.44-3.81-1.01-5.62-2.23-7.06-3.97-14.25-5.94-21.38-.52-1.89-1.76-2.5-3.71-1.81-.3.11-.42.32-.35.63,1.35,6.14,2.9,12.23,4.65,18.28,1.53,5.26,1.81,10.74,2.92,16.19,1.03,5.05,1.78,9.1,2.26,12.14.89,5.61,2.08,11.17,3.55,16.68.45,1.69.64,3.51.56,5.46-.26,6.16.33,11.24,2.27,17.09,1.17,3.54.16,7.1-.31,10.55-.13.9.18,1.92-.56,2.93-.18.25-.34.23-.47-.05l-.19-.41c-.26-.55-.45-.52-.57.07-.18.86-.24,1.71-.17,2.56-1.88-6.59-3.28-15.42-7.25-21l.64-.45c.27-.19.37-.45.29-.78-6.51-26.38-13.28-52.8-19-79.36-1.81-8.42-4.3-17.49-5.35-25.97-.04-.33,0-.64.13-.94,2.09-4.86-2.7-18.37-4.21-22-2.69-8.5-4.84-17.12-6.43-25.87-4-21.89-8.65-43.57-13.14-65.36-.91-4.39-1.62-9.27-2.13-14.62-1.32-13.68-3.63-27.33-1.45-41.25,4.21-27.01,20.99-51,47.23-60.86,7.03-2.64,11.85-4.4,14.48-5.27Z"/>
    <path class="cls-72" d="m82.03,200.25l.54,12.04c.28,1.61.18,3.32-.29,5.13,7.37,28.61,15.01,57.14,22.92,85.59,3.6,12.92,5.07,23.94-.56,36.67-4.87,7.73-11.9,11.67-21.11,11.82.32-.59.38-1.2.17-1.85-.11-.36-.33-.44-.66-.25-.32.18-.65.29-.99.32-1.04.11-1.04,0,0-.35,3.73-1.22,6.88-3.34,9.47-6.37,4.77-1.11,5.17-3.04,7.25-6.92,1.83-2.39,2.9-5.07,3.21-8.04,1.73-5.95.38-12.46-1.13-18.32-6.89-26.79-14.29-53.46-22.2-80-.17-.58-.3-.57-.39.03-.36,2.55-.37,5.07-.03,7.54l-3.5.5c-1.93-13.41.5-25.93,7.29-37.54Z"/>
    <path class="cls-98" d="m109.54,206.36c-3.02,1.57-21.82,9.02-21.27,1.6.44-5.98,17.58-8.34,22.09-7.31.35.08.63.27.83.57,1.33,2.04.44,4.05-1.65,5.14Z"/>
    <path class="cls-93" d="m174.49,208.79c-.62,1.87-.61,3.42-1.82,5.02-2.79,3.73-5.95,7.13-9.47,10.2-24.7,23.22-33.85,60.63-28.16,93.02.45,2.56,2.14,8.37,5.09,17.43-4.09-8.36-7.03-16.67-8.82-24.94-8.39-38.76,11.66-78.12,43.18-100.73Z"/>
    <path class="cls-85" d="m45.01,214.87c0,2.77-2.25,5.02-5.02,5.02h0c-2.77,0-5.02-2.25-5.02-5.02h0c0-2.77,2.25-5.02,5.02-5.02s5.02,2.25,5.02,5.02Z"/>
    <path class="cls-92" d="m252.56,209.83l-12.74,7.71c-1.18-1.35-2.27-1.84-3.27-1.49-29.66,10.55-50.81,34.99-57.39,65.59-4.39,20.38,4.36,44.8,10.16,64.86,19.91,68.85,39.38,137.82,58.42,206.91,10.34,37.52,20.53,75.09,30.77,112.63,1.63,5.97,4.88,12.77,9.76,20.42.18.28.22.58.12.9l-.36,1.14c-12.35-11.77-18.05-23.87-22.71-41.09-34.94-128.91-61.78-228.22-80.53-297.92-1.61-5.99-3.78-14.4-6.53-25.22-10-39.37.21-80.6,36.03-102.95,3.63-2.27,8.37-4.19,14.23-5.77,7.94-2.15,15.95-4.05,24.04-5.72Z"/>
    <path class="cls-96" d="m744.49,212.04l1.09,3.88c.11.39-.03.62-.43.69-9.7,1.66-18.28,4.11-23.05,13.44-2.93,5.75-3.55,11.92-1.84,18.5,11.07,42.75,18.56,71.42,22.48,85.99,2.63,9.77,8.74,15.16,18.31,16.18,4.63.49,9.96-1.4,14.36-2.94.94-.33,1.53,0,1.78.96l11.18,43.86c.05.2-.07.41-.28.46-.01,0-.03,0-.04,0-14.95,2-27.29,11.31-22.88,28.05,6.01,22.79,11.97,45.59,17.88,68.42,1.56,6.03,2.82,10.93,7.47,15.03,6.45,5.7,14.1,6.69,22.95,2.96.34-.15.74,0,.89.35.01.03.03.06.03.1l12.36,47.59c.12.46-.15.94-.61,1.06-6.48,1.7-14.41,3.28-19.73,7.14-4.19,3.04-7.81,6.79-10.87,11.25,1.23-15.63,15.27-20.03,28.77-22.23.33-.05.56-.37.5-.7,0-.02,0-.04-.01-.06l-9.55-37.47c-.09-.35-.3-.59-.64-.72-.55-.22-1.06,0-1.54.66-16.63,2.73-29.13-5.65-33.22-21.52-6.06-23.51-12.13-47.01-18.21-70.51-1.12-4.35-1.58-8.07-1.38-11.18.37-5.71,2.84-11.01,7.4-15.91,5.19-3.31,10.91-5.34,17.14-6.09.12-.01.24,0,.35.06l.46.22c.22.1.48,0,.58-.21.04-.09.05-.2.03-.29l-9.29-35.49c-.09-.36-.46-.57-.81-.48-.01,0-.02,0-.03,0l-7.31,2.22c-13.15,1.01-22.23-3.28-27.22-12.87-1.06-2.05-2.99-8.41-5.79-19.1-6.04-23.04-12.04-46.09-18.01-69.15-3.54-13.69-4.26-23.22,5.31-33.42,6.25-4.99,13.39-7.9,21.42-8.75Z"/>
    <path class="cls-77" d="m82.57,212.29c.56,1.61.7,3.28.42,5-.06,0-.3.04-.71.13.47-1.81.57-3.52.29-5.13Z"/>
    <circle class="cls-83" cx="39.92" cy="214.81" r="2.22"/>
    <path class="cls-76" d="m176.07,217.04l-.29-.29c1.01-1.55,2.33-2.73,3.94-3.54.97-.48,1.05-.36.24.36l-3.89,3.47Z"/>
    <path class="cls-83" d="m239.82,217.54c-35.72,27.12-36.21,80.69-24.69,120.04,11.32,38.66,22.32,77.47,34.19,115.96.96,6.46,3.54,13.71,4.85,18.76,1.91,7.35,4.61,15.13,6.45,21.81,1.07,3.89,2.18,7.76,3.34,11.62,8.1,26.95,28.97,39.31,55.09,45.02,14.17,3.09,28.49,5.14,42.97,6.13,24,1.65,47.99,1.85,71.98.6l3.53,2.1c.11.71.43,1.22.95,1.52,31.52,18.3,69.5,11.64,93.73-15.11,2.88-3.18,8.94-10.33,10.37-14.54.11-.33,0-.55-.32-.66-.15-.05-.31-.06-.48-.04.81-1.07,1.48-1.71,2.02-1.93,18.83-7.6,36.86-16.72,54.11-27.35,39.69-24.48,81.31-56.72,85.48-107.76,2.04,5.09,4.15,11.89,6.32,20.39,11.21,43.79,18.81,72.77,22.81,86.94,3.37,11.93,5.86,22.76,7.47,32.5-.69.18-1.37.13-2.04-.14-.33-.13-.56-.03-.69.3-2.03,5.51-1.21,13.7-2.11,19.43-2.39,15.11-9.21,27.54-20.46,37.28-7.85,6.8-16.84,10.06-26.98,12.78-78.8,21.16-186.86,51.12-280.46,76.35-10.83,2.92-27.84,8.09-40.46,10.76-13.41,2.84-26.78,2.32-40.11-1.57-.29-.09-.59.08-.67.36-.03.09-.03.19,0,.28.22,1.01.79,1.92,1.72,2.74,14.52,12.74,34.46,9.96,51.83,5.26,85.89-23.27,171.75-46.67,257.58-70.18,22.5-6.16,48.51-12.65,64.7-17.81,11.43-3.65,21.13-10.63,29.11-20.94.7,1.44,1.79,2.35,3.28,2.72.37.09.57.32.6.7.12,1.46.69,2.7,1.71,3.72-11.64,13.81-24.6,20.71-42.41,25.57-105.59,28.79-211.2,57.52-316.83,86.17-24.47,6.64-51.22-2.29-69.26-18.82l.36-1.14c.1-.32.06-.62-.12-.9-4.88-7.65-8.13-14.45-9.76-20.42-10.24-37.54-20.43-75.11-30.77-112.63-19.04-69.09-38.51-138.06-58.42-206.91-5.8-20.06-14.55-44.48-10.16-64.86,6.58-30.6,27.73-55.04,57.39-65.59,1-.35,2.09.14,3.27,1.49Z"/>
    <ellipse class="cls-93" cx="648.25" cy="519.97" rx="25.77" ry="27.15"/>
    <path class="cls-75" d="m175.78,216.75l.29.29c-25.62,24.38-33.83,66.82-29,100.43.83,5.79,3.51,17.26,8.03,34.41,24.1,91.35,49.34,182.43,73.94,273.66,3.08,11.44,6.23,22.86,9.46,34.26,4.1,14.51,11.72,28.33,22.86,41.48.07.09.05.14-.05.17-.09.03-.19.06-.28.09-.05.01-.09,0-.13-.03-15.1-16.26-22.59-33.2-28.25-54.32-28.28-105.4-53.16-192.19-78.68-288.54-1.25-4.71-2.75-10.68-4.48-17.91-1.92-7.99-4.4-16.54-5.51-24.03-5.66-38.16,3.56-73.36,31.8-99.96Z"/>
    <path class="cls-76" d="m82.28,217.42c.41-.09.65-.13.71-.13,1.95,7.24,4.58,14.74,6.37,21.49,5.86,22.06,11.77,44.15,18.21,66.05,1.84,6.26,3.15,11.91,3.92,16.96,1.11,7.28-1.18,13.24-6.85,17.89,5.63-12.73,4.16-23.75.56-36.67-7.91-28.45-15.55-56.98-22.92-85.59Z"/>
    <path class="cls-85" d="m780.81,226.51c0,4.87-3.95,8.82-8.82,8.82h0c-4.87,0-8.82-3.95-8.82-8.82h0c0-4.87,3.95-8.82,8.82-8.82h0c4.87,0,8.82,3.95,8.82,8.82h0Z"/>
    <path class="cls-93" d="m506.92,244.51c-1.75,3.81-6.91,1.26-5.7-2.62,1.1-3.54,2.64-6.89,4.62-10.04,10.39-16.55,31.38-15.39,43.4-1.44.2.23.3.5.31.81.04,2.43-1.9,5.57-4.6,3.62-6.68-4.83-13.04-10.05-21.84-8.02-8.96,2.07-12.71,10.1-16.19,17.69Z"/>
    <ellipse class="cls-71" cx="771.91" cy="226.62" rx="5.91" ry="6.3" transform="translate(-27.31 134.69) rotate(-9.8)"/>
    <path class="cls-70" d="m723.07,220.79c-9.57,10.2-8.85,19.73-5.31,33.42,5.97,23.06,11.97,46.11,18.01,69.15,2.8,10.69,4.73,17.05,5.79,19.1,4.99,9.59,14.07,13.88,27.22,12.87-12.39,3.5-23.85,7.18-32.74-4.75-4.42-5.94-6.78-17.59-8.64-24.71-6.37-24.45-12.75-48.89-19.14-73.32-2.38-9.13-1.03-18.86,6.87-24.64,2.47-1.81,4.28-4.01,5.44-6.62l2.5-.5Z"/>
    <path class="cls-75" d="m163.2,224.01c-20.25,25.37-28.33,56.24-24.52,88.19,1.27,10.65,4.98,24.03,7.35,36.05l-.46.04c-1.29-4.83-3.1-9.44-5.44-13.83-2.95-9.06-4.64-14.87-5.09-17.43-5.69-32.39,3.46-69.8,28.16-93.02Z"/>
    <path class="cls-93" d="m101.99,328.04c-.39-3.32-.7-5.41-.94-6.26-7-24.26-13.73-48.6-20.2-73.01-1-3.79-1.87-7.62-2.61-11.48-.34-2.47-.33-4.99.03-7.54.09-.6.22-.61.39-.03,7.91,26.54,15.31,53.21,22.2,80,1.51,5.86,2.86,12.37,1.13,18.32Z"/>
    <path class="cls-96" d="m78.24,237.29c.74,3.86,1.61,7.69,2.61,11.48,6.47,24.41,13.2,48.75,20.2,73.01.24.85.55,2.94.94,6.26-.31,2.97-1.38,5.65-3.21,8.04l-7.25,6.92c-2.59,3.03-5.74,5.15-9.47,6.37-1.05.34-1.05.46,0,.35.34-.03.67-.14.99-.32.33-.19.55-.11.66.25.21.65.15,1.26-.17,1.85l-9.06,1.15c-.39.05-.6.26-.64.65-.06.51.1,1.01.49,1.49,2.86,11.43,6.46,19.78,9.48,33.82,5.55-.92,11.02-1.96,16.43-3.12,16.5-3.53,27.7,2.85,32.19,19.12,5.33,19.3,11.41,40.17,18.24,62.61,1.34,4.39,3.1,10.46,2.88,14.84-.15,3.12-.72,6.23-1.69,9.33-4.17,6.19-9.52,10.97-16.07,14.36l-6.69,2.6c1.58,9.51,3.69,18.87,6.34,28.1.07.25.33.41.59.35,13.88-3.29,25.33-7.72,37.76,1.53l3.71,3.71c3.97,5.58,5.37,14.41,7.25,21,4.64,17.59,9.32,35.18,14.04,52.75,1.4,5.21,2.08,9.96,2.04,14.25-.97,11.71-6.49,20.47-16.54,26.29l-4.99,2.36c-3.86,1.15-7.36,2.76-10.49,4.81,1.15,13.36,5.59,26.79,9.16,39.58.17.63.58.87,1.21.74,12.43-2.66,29.9-8.93,36.84,7.19.23.53.14.6-.29.21-12.68-11.79-24.67-5.47-39.73-1.9-.46.11-.75-.07-.87-.53l-12.68-47.72c-.14-.52.17-1.06.7-1.2.03,0,.07-.02.1-.02,13.18-2.02,27.37-9.17,30.29-23.55,1.64-8.07-.38-14.28-3.11-24.15-8.47-30.61-14.17-51.49-17.1-62.62-3.32-12.63-12.1-14.6-23.29-11.79-5.56,1.4-11.03,2.81-16.41,4.23-.36.1-.73-.12-.83-.48l-10.02-37.23c-.1-.37.04-.6.42-.68,20.33-4.08,27.78-12.11,21.93-33.36-6.13-22.24-12.1-44.53-17.9-66.87-5.95-22.92-31.21-13.04-45.88-8.59-.42.13-.68-.02-.79-.45l-11.89-45.52c-.17-.65.22-1.32.88-1.49.04-.01.08-.02.12-.03,16.6-2.59,30.89-9.35,25.67-29.17-5.73-21.73-11.55-43.44-17.46-65.13-1.37-4.99-2.41-10.05-3.13-15.18l3.5-.5Z"/>
    <path class="cls-85" d="m755,248.41c0,4.09-3.32,7.41-7.41,7.41s-7.41-3.32-7.41-7.41,3.32-7.41,7.41-7.41,7.41,3.32,7.41,7.41Z"/>
    <path class="cls-85" d="m21.7,252.12c0,5.99-4.86,10.85-10.85,10.85h0c-5.99,0-10.85-4.86-10.85-10.85h0c0-5.99,4.86-10.85,10.85-10.85s10.85,4.86,10.85,10.85Z"/>
    <path class="cls-3" d="m13.6,244.61c-.84,5.6-.71,11.42-7.07,13.97" vector-effect="non-scaling-stroke"/>
    <path class="cls-79" d="m162.28,243.5c1.07-.02,2.02.28,2.86.91.3.22.37.5.21.84-12.78,26.89-16.82,55.3-9.19,84.51,10.07,38.55,20.26,77.06,30.55,115.55,2.32,8.65,4.38,16.04,6.17,22.16,4.98,16.98,8.69,32.46,13.33,48.61,4.16,14.49,7.2,28.21,11.86,43.61,1.73,5.71,3.29,11.27,4.68,16.68,7.71,29.99,15.14,60.49,25.46,89.7.39,1.1,1.59,3.67,3.61,7.72l-1.75,3.5c-4.02-7.45-7.38-16.03-10.09-25.74-12.8-45.98-24.92-92.15-37.67-138.13-15.97-57.55-31.54-115.21-46.73-172.97-2.32-8.83-3.83-15.32-4.53-19.47-4.42-26.45-1.4-53.47,11.23-77.48Z"/>
    <path class="cls-91" d="m13.6,244.61c-.84,5.6-.71,11.42-7.07,13.97-8.14-5.31-2.53-17.49,7.07-13.97Z"/>
    <ellipse class="cls-96" cx="747.68" cy="248.43" rx="4.5" ry="4.77" transform="translate(71.07 652.09) rotate(-49.2)"/>
    <path class="cls-86" d="m13.6,244.61c11.9,6.96,1.59,20.84-7.07,13.97,6.36-2.55,6.23-8.37,7.07-13.97Z"/>
    <path class="cls-1" d="m666.07,253.54c.03.61.31.98.83,1.11.3.07.49.26.58.56,16.12,55.77,26.39,96.09,39.26,144.27,4.54,16.99,7.93,30.59,10.18,40.78.03.17-.03.5-.2,1-.11.32-.12.64-.03.97.56,2.21,1.1,4.42,1.61,6.63.89,3.82,3.14,8.07,3.62,12.63.04.34.17.64.39.89,1.36,1.58,2.43,9.65,3.43,15.16-1.69-1.58-3.6-9.25-3.62-10.57-.03-1.87-.45-3.33-1.26-4.38-.21-.27-.33-.57-.38-.9-.45-2.98-1.18-5.89-2.17-8.73-.3-.86-1.07-1.18-1.29-2.08-1.33-5.5-2.09-11.33-3.47-16.48-8.28-30.9-16.5-61.82-24.65-92.75-7.46-28.26-15.43-56.38-22.79-84.68-.15-.59-.17-1.73-.04-3.43Z"/>
    <path class="cls-70" d="m579.38,385.08c-21.09,11.46-43.38-5.52-53.22-23.63-11.48-21.13-14.78-43.57-9.91-67.33,3.14-15.36,12.52-30.21,29.23-32.59,19.95-2.86,36.45,13.91,44.87,30.44,9.29,18.25,12.65,37.5,10.08,57.75-1.74,13.66-8.92,28.77-21.05,35.36Z"/>
    <path class="cls-85" d="m61.9,278.2c0,4.67-3.79,8.46-8.46,8.46s-8.46-3.79-8.46-8.46c0-4.67,3.79-8.46,8.46-8.46s8.46,3.79,8.46,8.46Z"/>
    <path class="cls-93" d="m287.33,294.9c-2.01,5.06-7.56,1.97-6.3-2.23,2.48-8.25,6.99-14.53,13.54-18.82,11.26-7.4,27.22-3.49,35.64,6.29,1.74,2.02-.87,7.14-4.4,4.7-2.75-1.89-5.63-4.33-8.29-5.7-14.7-7.56-25.09,2.87-30.19,15.76Z"/>
    <ellipse class="cls-94" cx="554.76" cy="293.69" rx="16.53" ry="23.27" transform="translate(-43.24 102.88) rotate(-10.2)"/>
    <ellipse class="cls-71" cx="53.18" cy="278.24" rx="5.56" ry="5.92" transform="translate(-56.23 16.95) rotate(-11.9)"/>
    <path class="cls-85" d="m793.77,287.13c0,6.85-5.55,12.4-12.4,12.4-6.85,0-12.4-5.55-12.4-12.4h0c0-6.85,5.55-12.4,12.4-12.4h0c6.85,0,12.4,5.55,12.4,12.4Z"/>
    <path class="cls-16" d="m788.23,280.16c-.13,2.6.33,5.38-.58,7.7-1.46,3.73-3.87,6.8-7.24,9.21" vector-effect="non-scaling-stroke"/>
    <path class="cls-80" d="m788.23,280.16c-.13,2.6.33,5.38-.58,7.7-1.46,3.73-3.87,6.8-7.24,9.21-17.87-3.86-5.76-28.03,7.82-16.91Z"/>
    <path class="cls-73" d="m788.23,280.16c4.61,6.03,3.95,11.32-1.98,15.87-1.2.92-3.15,1.27-5.84,1.04,3.37-2.41,5.78-5.48,7.24-9.21.91-2.32.45-5.1.58-7.7Z"/>
    <path class="cls-85" d="m65.39,298.29c0,2.81-2.28,5.09-5.09,5.09s-5.09-2.28-5.09-5.09,2.28-5.09,5.09-5.09,5.09,2.28,5.09,5.09Z"/>
    <ellipse class="cls-71" cx="60.2" cy="298.36" rx="1.78" ry="2" transform="translate(-175.7 106.02) rotate(-39.4)"/>
    <path class="cls-85" d="m772,311.01c0,3.87-3.13,7-7,7s-7-3.13-7-7,3.13-7,7-7,7,3.13,7,7Z"/>
    <circle class="cls-71" cx="765.12" cy="310.85" r="4.14"/>
    <path class="cls-70" d="m330.76,448.95c-23.08,3.74-46.6-22.95-52.54-59.62h0c-5.94-36.66,7.96-69.41,31.03-73.15h0c23.08-3.74,46.6,22.95,52.54,59.62,5.94,36.66-7.96,69.41-31.03,73.15h0Z"/>
    <path class="cls-85" d="m856.65,335.88c0,6.32-5.12,11.44-11.44,11.44h0c-6.32,0-11.44-5.12-11.44-11.44h0c0-6.32,5.12-11.44,11.44-11.44h0c6.32,0,11.44,5.12,11.44,11.44h0Z"/>
    <path class="cls-16" d="m851.28,330.08c.68,5.54-.97,10.41-4.96,14.6" vector-effect="non-scaling-stroke"/>
    <ellipse class="cls-94" cx="319.02" cy="349.54" rx="16.76" ry="23.54" transform="translate(-53.32 57.45) rotate(-9.5)"/>
    <path class="cls-80" d="m851.28,330.08c.68,5.54-.97,10.41-4.96,14.6-18.64-.27-7.23-27.09,4.96-14.6Z"/>
    <path class="cls-83" d="m604.85,352.28c-5.9-2.95-2.62-11.1,1-13.92,10.45-8.15,27.83-13.18,40.95-7.56,9.83,4.22,4.65,12.75-1.69,16.76-11.07,7.01-27.87,10.91-40.26,4.72Z"/>
    <path class="cls-73" d="m851.28,330.08c1.27.98,2.04,2.11,2.3,3.39,1.28,6.43-1.14,10.16-7.26,11.21,3.99-4.19,5.64-9.06,4.96-14.6Z"/>
    <path class="cls-85" d="m817.84,347.05c-10.51,4.44-17.38-7.62-7.77-12.51,9.31-.39,11.9,3.78,7.77,12.51Z"/>
    <path class="cls-76" d="m98.78,336.08c-2.08,3.88-2.48,5.81-7.25,6.92l7.25-6.92Z"/>
    <circle class="cls-71" cx="812.77" cy="341.05" r="4.1"/>
    <ellipse class="cls-94" cx="550.64" cy="349.1" rx="7.11" ry="8.66" transform="translate(-50.07 95.67) rotate(-9.5)"/>
    <path class="cls-89" d="m145.57,348.29l.46-.04c1.52,4.96,2.57,10.73,3.73,15.03,7.8,28.91,15.57,57.82,23.31,86.75.66,2.48,1.22,4.98,1.67,7.51-.17.08-.36.08-.58,0-.23-.09-.38-.24-.47-.46-.27-.71-.82-1.06-1.65-1.04-.35,0-.59-.15-.73-.46-.97-2.11-1.73-4.54-2.27-7.29-2.23-11.33-5.13-24.6-8.72-39.81-1.29-5.47-5.01-9.26-6-15.17-.05-.29-.2-.53-.43-.72-1.21-.97-1.21-2.11,0-3.42.21-.23.27-.5.17-.81-.88-2.58-1.55-5.19-2.01-7.82-1.89-10.81-4.06-21.56-6.49-32.25Z"/>
    <path class="cls-76" d="m85.28,387.33l-1.48,1.28c-3.02-14.04-6.62-22.39-9.48-33.82.46-.15.93-.21,1.41-.16.34.03.61.18.82.45,4.99,6.27,7.69,13.55,6.84,21.61-.35,3.32,0,6.59,1.07,9.82.07.22.21.4.4.53l.42.29Z"/>
    <path class="cls-77" d="m133.81,377.32c-3.12-2.32-7.37-17.03-5.87-20.55.16-.36.58-.52.94-.36.12.05.23.14.3.25,3.3,4.98,8.95,14.42,6.05,20.32-.23.47-.8.66-1.27.43-.05-.03-.1-.06-.15-.09Z"/>
    <path class="cls-85" d="m822.18,367.07c0,3.99-3.24,7.23-7.23,7.23h0c-3.99,0-7.23-3.24-7.23-7.23s3.24-7.23,7.23-7.23c3.99,0,7.23,3.24,7.23,7.23h0Z"/>
    <path class="cls-85" d="m50.85,368.38c0,4.12-3.34,7.46-7.46,7.46s-7.46-3.34-7.46-7.46c0-4.12,3.34-7.46,7.46-7.46s7.46,3.34,7.46,7.46Z"/>
    <circle class="cls-96" cx="815.08" cy="366.94" r="4.64"/>
    <ellipse class="cls-91" cx="43.21" cy="368.35" rx="4.53" ry="4.86" transform="translate(-109.95 30.57) rotate(-17.7)"/>
    <path class="cls-93" d="m134.74,392.04l.29.54c.1,1.67-.46,2.99.03,4.57,1.27,4.1,3.14,8.17,4.2,12.05,4.41,16,7.97,32.23,12.32,48.2,3.57,13.11,5.69,21.87.27,33.99.97-3.1,1.54-6.21,1.69-9.33.22-4.38-1.54-10.45-2.88-14.84-6.83-22.44-12.91-43.31-18.24-62.61-4.49-16.27-15.69-22.65-32.19-19.12-5.41,1.16-10.88,2.2-16.43,3.12l1.48-1.28c.75-.6,1.35-1.4,2.18-1.84,13.31-7.07,28.13-10.32,41.04.08,2.8,2.25,4.88,4.41,6.24,6.47Z"/>
    <ellipse class="cls-83" cx="614.76" cy="391.26" rx="24.27" ry="10.97" transform="translate(-73.52 151.92) rotate(-13.3)"/>
    <path class="cls-72" d="m147.53,414.83c1.3,5.07,3.92,12.15,3.95,17.25,0,.57-.25.73-.77.5l-1.27-.56c-.29-.13-.48-.35-.56-.65-.18-.63-.55-1.09-1.1-1.38-.29-.15-.48-.38-.57-.69-2.38-8.4-5.46-18.23-9.23-29.49-.99-2.96-1.98-5.37-2.95-7.23l-.29-.54.07-3.33c0-.41.22-.65.63-.7,2.27-.27,3.83.89,4.7,3.46,3.53,10.46,5.99,18.25,7.39,23.36Z"/>
    <path class="cls-77" d="m135.03,392.58c.97,1.86,1.96,4.27,2.95,7.23,3.77,11.26,6.85,21.09,9.23,29.49.09.31.28.54.57.69.55.29.92.75,1.1,1.38.08.3.27.52.56.65l1.27.56c.52.23.78.07.77-.5-.03-5.1-2.65-12.18-3.95-17.25l2.46-2.29c1.51,3.63,6.3,17.14,4.21,22-.13.3-.17.61-.13.94,1.05,8.48,3.54,17.55,5.35,25.97,5.72,26.56,12.49,52.98,19,79.36.08.33-.02.59-.29.78l-.64.45-3.71-3.71c-8.29-16.06-23.54-7.99-35.4-3.03-2.24-10.34-3.86-20.64,7.38-24.08,2.4-.73,4.4-1.03,6.1-3.05,2.28-2.7,6.94-8.74,5.6-12.18-.13-.33-.37-.49-.73-.47-7,.39-14.93,7.33-20.95,10.23,6.55-3.39,11.9-8.17,16.07-14.36,5.42-12.12,3.3-20.88-.27-33.99-4.35-15.97-7.91-32.2-12.32-48.2-1.06-3.88-2.93-7.95-4.2-12.05-.49-1.58.07-2.9-.03-4.57Z"/>
    <path class="cls-70" d="m767.66,395.38c-4.56,4.9-7.03,10.2-7.4,15.91-.2,3.11.26,6.83,1.38,11.18,6.08,23.5,12.15,47,18.21,70.51,4.09,15.87,16.59,24.25,33.22,21.52-7.74,2.11-12.67,3.23-14.78,3.36-14.36.87-21.81-6.67-25.25-19.41-7.15-26.41-14.29-52.93-20.16-79.65-.34-1.54-.47-2.91-.39-4.12.61-9.81,5.67-16.25,15.17-19.3Z"/>
    <ellipse class="cls-94" cx="313.35" cy="404.35" rx="7.19" ry="8.82" transform="translate(-69.03 64.54) rotate(-10.6)"/>
    <path class="cls-70" d="m540.74,530.54c-23.57,33.75-65.64,47.23-103.21,29.04l-3.53-2.1c-35.85-19.77-53.9-66.92-64.03-103.97-.1-.35-.32-.47-.67-.34-2.55.9-13.53,5.48-11.63-1.93.09-.31.26-.57.52-.77.91-.68,1.94-1.16,3.08-1.45,67.55-17.36,135.08-34.81,202.59-52.35.77-.2,1.54-.24,2.31-.12.31.05.56.2.75.45,4.08,5.64-5.03,6.53-8.01,7.05-.53.09-.75.41-.66.94,7.19,42.12,6.72,88.49-17.51,125.55Z"/>
    <path class="cls-85" d="m59.83,415.66c-2.68,2.35-6.85,1.99-9.32-.82h0c-2.47-2.81-2.3-6.99.38-9.35,0,0,0,0,0,0,2.68-2.35,6.85-1.99,9.32.82t0,0c2.47,2.81,2.3,6.99-.38,9.35,0,0,0,0,0,0Z"/>
    <circle class="cls-71" cx="55.24" cy="410.52" r="3.51"/>
    <path class="cls-85" d="m94.7,417.76c0,2.76-2.23,4.99-4.99,4.99s-4.99-2.23-4.99-4.99,2.23-4.99,4.99-4.99,4.99,2.23,4.99,4.99Z"/>
    <ellipse class="cls-71" cx="89.65" cy="417.74" rx="1.94" ry="2.34" transform="translate(-12.35 2.84) rotate(-1.7)"/>
    <path class="cls-94" d="m514.84,442.03c-2.86,7.37-14.28,8.51-17.1-.19-2.04-6.31-4.04-12.66-5.99-19.05-.1-.33.02-.54.35-.63l19.52-4.95c.33-.08.53.05.59.39,1.05,5.75,4.61,19.32,2.63,24.43Z"/>
    <path class="cls-85" d="m109.06,427.18c0,3.12-2.53,5.65-5.65,5.65s-5.65-2.53-5.65-5.65h0c0-3.12,2.53-5.65,5.65-5.65h0c3.12,0,5.65,2.53,5.65,5.65h0Z"/>
    <ellipse class="cls-71" cx="103.34" cy="427.17" rx="2.72" ry="2.41" transform="translate(-156.84 72.97) rotate(-22.7)"/>
    <path class="cls-85" d="m78.73,442.44c0,5.82-4.72,10.54-10.54,10.54h0c-5.82,0-10.54-4.72-10.54-10.54h0c0-5.82,4.72-10.54,10.54-10.54h0c5.82,0,10.54,4.72,10.54,10.54h0Z"/>
    <circle class="cls-80" cx="68.12" cy="442.46" r="7.81"/>
    <path class="cls-94" d="m434.59,462.55c-2.03,6.97-13.89,9.37-16.79.93-2.25-6.51-4.39-13.1-6.44-19.75-.12-.37.01-.61.39-.71l19.51-5.17c.29-.07.45.03.5.32,1.04,6.49,4.41,18.95,2.83,24.38Z"/>
    <path class="cls-85" d="m686.61,460.56c-4.12,3.65-10.52,3.16-14.28-1.09-3.76-4.25-3.47-10.66.66-14.31,4.12-3.65,10.52-3.16,14.28,1.09,3.76,4.25,3.47,10.66-.66,14.31h0Z"/>
    <path class="cls-85" d="m793.67,457.4c-3.5-.07-6.27-3.09-6.19-6.74h0c.08-3.65,2.97-6.55,6.47-6.48s6.27,3.09,6.19,6.74h0c-.08,3.65-2.97,6.55-6.47,6.48Z"/>
    <path class="cls-85" d="m868.85,461.75c-4.02,1.48-8.53-.71-10.07-4.88-1.54-4.18.48-8.76,4.5-10.24h0c4.02-1.48,8.53.71,10.07,4.88h0c1.54,4.18-.48,8.76-4.5,10.24Z"/>
    <ellipse class="cls-78" cx="680.16" cy="452.7" rx="6.15" ry="5.82" transform="translate(-135.94 491.94) rotate(-36.4)"/>
    <circle class="cls-71" cx="793.91" cy="450.68" r="3.67"/>
    <ellipse class="cls-71" cx="866.16" cy="454.2" rx="5.02" ry="5.38" transform="translate(-82.93 218.06) rotate(-13.7)"/>
    <path class="cls-71" d="m250.03,454.83c1.17,1.13,1.74,2.54,1.71,4.21-.88-1.27-1.45-2.68-1.71-4.21Z"/>
    <path class="cls-85" d="m811.27,475.83c-5.24,1.1-10.41-2.37-11.55-7.76s2.19-10.65,7.44-11.76c5.24-1.1,10.41,2.37,11.55,7.76,1.14,5.39-2.19,10.65-7.44,11.76Z"/>
    <path class="cls-41" d="m815.99,467.54c-4.49-1.29-8.74-3.13-12.75-5.5" vector-effect="non-scaling-stroke"/>
    <path class="cls-71" d="m815.99,467.54c-4.49-1.29-8.74-3.13-12.75-5.5,4.37-6.68,13.48-2.16,12.75,5.5Z"/>
    <path class="cls-88" d="m183.07,489.79c13.38,49.65,26.69,99.32,39.92,149.01,3.1,11.65,6.46,23.23,10.08,34.74,16.73,44.45,67.05,79.09,114.96,76.09,4.81-.3,11.07-1.43,18.77-3.39,34.32-8.74,68.3-18.59,102.68-27.16-13.36,8.19-18.18,19.99-14.47,35.41,1.99,8.29,4.07,16.55,6.23,24.8-6.57,1.43-11.05,2.44-13.45,3.04-48.93,12.33-97.8,24.85-146.63,37.58-7.63,1.99-13.13,2.98-16.49,2.95-16.47-.15-36.04-12.15-40.42-28.95-7.05-27.05-14.13-54.09-21.22-81.12-.95-3.61-3.03-7.35-6.25-11.21,4.73-1.04,3.35-3.95,2.39-7.78-5.11-20.33-10.12-40.68-15.01-61.06-.5-2.09-1.27-2.56-3.34-2.7.04-4.29-.64-9.04-2.04-14.25-4.72-17.57-9.4-35.16-14.04-52.75-.07-.85-.01-1.7.17-2.56.12-.59.31-.62.57-.07l.19.41c.13.28.29.3.47.05.74-1.01.43-2.03.56-2.93.47-3.45,1.48-7.01.31-10.55-1.94-5.85-2.53-10.93-2.27-17.09.08-1.95-.11-3.77-.56-5.46-1.47-5.51-2.66-11.07-3.55-16.68-.48-3.04-1.23-7.09-2.26-12.14-1.11-5.45-1.39-10.93-2.92-16.19-1.75-6.05-3.3-12.14-4.65-18.28-.07-.31.05-.52.35-.63,1.95-.69,3.19-.08,3.71,1.81,1.97,7.13,3.71,14.32,5.94,21.38.57,1.81.91,3.69,1.01,5.62.01.31.17.5.48.57.37.08.63-.09.78-.51Z"/>
    <path class="cls-60" d="m357.03,763.08c.14,1.41.45,2.44.93,3.09,2.48,3.37,3.27,7.35,2.36,11.94-1.82,9.19-7.42,8.39-14.79,10.72" vector-effect="non-scaling-stroke"/>
    <path class="cls-96" d="m803.24,462.04c4.01,2.37,8.26,4.21,12.75,5.5-3.28,11.74-17.88,4.64-12.75-5.5Z"/>
    <ellipse class="cls-83" cx="294.48" cy="474.86" rx="21.44" ry="10.26" transform="translate(-100.65 79.79) rotate(-13.2)"/>
    <path class="cls-85" d="m125.62,472.31c0,4.58-3.72,8.3-8.3,8.3s-8.3-3.72-8.3-8.3c0-4.58,3.72-8.3,8.3-8.3h0c4.58,0,8.3,3.72,8.3,8.3h0Z"/>
    <ellipse class="cls-71" cx="117.16" cy="472.18" rx="5.38" ry="5.65" transform="translate(-59.05 18.71) rotate(-7.3)"/>
    <path class="cls-85" d="m93.23,486.71c0,3.79-3.07,6.86-6.86,6.86h0c-3.79,0-6.86-3.07-6.86-6.86h0c0-3.79,3.07-6.86,6.86-6.86s6.86,3.07,6.86,6.86Z"/>
    <circle class="cls-71" cx="86.26" cy="486.56" r="3.88"/>
    <path class="cls-46" d="m651.94,540.09c-8.29-5.19-13.43-12.21-15.43-21.04-.93-4.11-1.14-9.21-.63-15.28" vector-effect="non-scaling-stroke"/>
    <path class="cls-72" d="m138.38,535.3c-.17.32-.51.58-1.01.77-.48.19-1.03-.05-1.22-.54-.02-.05-.03-.1-.04-.15-1.86-9.24-4.2-18.25-7.02-27.03l6.69-2.6c6.02-2.9,13.95-9.84,20.95-10.23.36-.02.6.14.73.47,1.34,3.44-3.32,9.48-5.6,12.18-1.7,2.02-3.7,2.32-6.1,3.05-11.24,3.44-9.62,13.74-7.38,24.08Z"/>
    <circle class="cls-94" cx="269.87" cy="501.08" r="4.15"/>
    <path class="cls-97" d="m651.94,540.09c-8.29-5.19-13.43-12.21-15.43-21.04-.93-4.11-1.14-9.21-.63-15.28,11.19-13.47,32.13-.62,33.4,14.24.91,10.75-7.15,19.44-17.34,22.08Z"/>
    <path class="cls-69" d="m428.67,546.89c-.74-.51-.91-1.17-.5-1.97,18.64-36.96,78.74-53.11,114.2-32.39.29.17.36.4.22.71-3.91,8.25-8.26,15.18-13.04,20.8-25.67,30.18-68.23,35.53-100.88,12.85Z"/>
    <path class="cls-82" d="m635.88,503.77c-.51,6.07-.3,11.17.63,15.28,2,8.83,7.14,15.85,15.43,21.04-20.84,3.56-29.46-23.09-16.06-36.32Z"/>
    <path class="cls-85" d="m853.87,513.19c0,3.61-2.92,6.53-6.53,6.53s-6.53-2.92-6.53-6.53,2.92-6.53,6.53-6.53,6.53,2.92,6.53,6.53h0Z"/>
    <path class="cls-93" d="m129.09,508.35c2.82,8.78,5.16,17.79,7.02,27.03.1.51.6.84,1.11.73.05-.01.1-.03.15-.04.5-.19.84-.45,1.01-.77,11.86-4.96,27.11-13.03,35.4,3.03-12.43-9.25-23.88-4.82-37.76-1.53-.26.06-.52-.1-.59-.35-2.65-9.23-4.76-18.59-6.34-28.1Z"/>
    <circle class="cls-71" cx="847.49" cy="513.12" r="3.58"/>
    <path class="cls-85" d="m95.19,523.08c-3.34,1.05-6.93-.94-8.02-4.43-1.09-3.49.72-7.17,4.06-8.22,3.34-1.05,6.93.94,8.02,4.43,1.09,3.49-.72,7.17-4.06,8.22h0Z"/>
    <ellipse class="cls-71" cx="93.07" cy="516.65" rx="3.27" ry="3.64" transform="translate(-22.45 4.55) rotate(-2.5)"/>
    <path class="cls-1" d="m736.07,516.54l1.84,4.44c.22.52.51.57.88.15l.6-.7c.33-.38.63-.35.89.08,1.95,3.23,3.28,6.67,4,10.32,7.3,36.92-11.36,78.99-47.06,93.63-3.79,1.55-9.39,3.27-16.78,5.14-13.62,3.45-28.04,7.93-40.58,11.24-15.91,4.2-31.8,8.51-47.65,12.93-48.28,13.47-96.8,26.14-145.18,39.25-29.52,8-59.11,15.75-88.76,23.24-15.45,3.91-30.54,2.88-45.26-3.08,3.17.57,6.26,1.35,9.27,2.32,1.04.34,2.74-.2,3.98-.02,11.48,1.72,21.82,1.32,31.02-1.2,105.67-28.96,211.44-57.61,317.13-86.51,8.41-2.3,14.7-4.46,18.87-6.49,30.52-14.8,47.34-45.5,45.98-79-.3-7.55-1.36-16.13-3.19-25.74Z"/>
    <path class="cls-85" d="m107.28,536.56c0,3.6-2.91,6.51-6.51,6.51h0c-3.6,0-6.51-2.91-6.51-6.51h0c0-3.6,2.91-6.51,6.51-6.51h0c3.6,0,6.51,2.91,6.51,6.51h0Z"/>
    <path class="cls-92" d="m540.74,530.54l1.04.21c.17-.02.33,0,.48.04.32.11.43.33.32.66-1.43,4.21-7.49,11.36-10.37,14.54-24.23,26.75-62.21,33.41-93.73,15.11-.52-.3-.84-.81-.95-1.52,37.57,18.19,79.64,4.71,103.21-29.04Z"/>
    <path class="cls-85" d="m861.86,538.9c0,3.56-2.89,6.45-6.45,6.45h0c-3.56,0-6.45-2.89-6.45-6.45h0c0-3.56,2.89-6.45,6.45-6.45h0c3.56,0,6.45,2.89,6.45,6.45h0Z"/>
    <circle class="cls-71" cx="100.68" cy="536.66" r="3.51"/>
    <path class="cls-92" d="m719.99,533.54c3.77,18.93,3.07,39.1-9.05,54.9-7.98,10.31-17.68,17.29-29.11,20.94-16.19,5.16-42.2,11.65-64.7,17.81-85.83,23.51-171.69,46.91-257.58,70.18-17.37,4.7-37.31,7.48-51.83-5.26-.93-.82-1.5-1.73-1.72-2.74-.07-.29.11-.58.4-.65.09-.02.19-.02.28,0,13.33,3.89,26.7,4.41,40.11,1.57,12.62-2.67,29.63-7.84,40.46-10.76,93.6-25.23,201.66-55.19,280.46-76.35,10.14-2.72,19.13-5.98,26.98-12.78,11.25-9.74,18.07-22.17,20.46-37.28.9-5.73.08-13.92,2.11-19.43.13-.33.36-.43.69-.3.67.27,1.35.32,2.04.14Z"/>
    <ellipse class="cls-95" cx="855.4" cy="538.85" rx="3.39" ry="3.8" transform="translate(-123.33 285.58) rotate(-17.7)"/>
    <path class="cls-85" d="m266.84,554.85c-4.51,3.28-10.9,2.18-14.26-2.44,0,0,0,0,0,0-3.36-4.63-2.43-11.04,2.08-14.32,4.51-3.28,10.9-2.18,14.26,2.44,0,0,0,0,0,0,3.36,4.63,2.43,11.04-2.08,14.32Z"/>
    <ellipse class="cls-72" cx="260.28" cy="546.77" rx="5.54" ry="5.96" transform="translate(-195.05 147.54) rotate(-23.3)"/>
    <path class="cls-85" d="m696.51,570.37c0,5.73-4.64,10.37-10.37,10.37s-10.37-4.64-10.37-10.37,4.64-10.37,10.37-10.37,10.37,4.64,10.37,10.37Z"/>
    <path class="cls-15" d="m685.27,563.51c1.81,1.62,1.53,4.2,4.13,4.17.38,0,.6.18.67.55.52,3.07-.48,5.64-3.01,7.71" vector-effect="non-scaling-stroke"/>
    <path class="cls-85" d="m862.32,567.28c0,3.67-2.98,6.65-6.65,6.65s-6.65-2.98-6.65-6.65h0c0-3.67,2.98-6.65,6.65-6.65s6.65,2.98,6.65,6.65Z"/>
    <circle class="cls-71" cx="855.73" cy="567.13" r="3.93"/>
    <path class="cls-74" d="m685.27,563.51c1.81,1.62,1.53,4.2,4.13,4.17.38,0,.6.18.67.55.52,3.07-.48,5.64-3.01,7.71-7.61,4.08-9.42-11.92-1.79-12.43Z"/>
    <path class="cls-83" d="m685.27,563.51c8.38.55,8.03,11,1.79,12.43,2.53-2.07,3.53-4.64,3.01-7.71-.07-.37-.29-.56-.67-.55-2.6.03-2.32-2.55-4.13-4.17Z"/>
    <path class="cls-85" d="m147.59,578.53c0,3.76-3.04,6.8-6.8,6.8s-6.8-3.04-6.8-6.8,3.04-6.8,6.8-6.8,6.8,3.04,6.8,6.8Z"/>
    <path class="cls-93" d="m337.07,610.04c-6.45,10.43-15.95,14.6-28.5,12.5-23.16-6.67-23.57-39.19-2.28-48.55,21.8-9.58,39.11,17.35,30.78,36.05Z"/>
    <path class="cls-46" d="m333.57,594.79c0,.11-.02.21-.03.32-.04.28-.2.42-.48.43h-.28c-.2,0-.33.1-.39.29-1.47,4.58-2.75,8-3.83,10.26-.81,1.71-2.59,4.84-5.33,9.41" vector-effect="non-scaling-stroke"/>
    <path class="cls-81" d="m779.4,575.19c.93-1.63,2.04-1.91,3.31-.84.68.57.93,1.5.62,2.33-12.14,33.3-28.64,64.4-64.89,76.25-.69.23-1.32.34-1.9.34-.85,0-.88-.14-.08-.44,3.54-1.32,7.01-2.73,10.15-4.85,25.33-17.15,40.26-40.27,50.83-68.63.54-1.44,1.19-2.83,1.96-4.16Z"/>
    <ellipse class="cls-71" cx="140.79" cy="578.49" rx="3.73" ry="4.07" transform="translate(-155.8 62.25) rotate(-16.2)"/>
    <path class="cls-97" d="m333.57,594.79c0,.11-.02.21-.03.32-.04.28-.2.42-.48.43h-.28c-.2,0-.33.1-.39.29-1.47,4.58-2.75,8-3.83,10.26-.81,1.71-2.59,4.84-5.33,9.41-8.15,4.26-16.81,2.51-22.32-4.86-8.41-11.25-2.7-27.19,9.61-32.6,11.28-4.96,21.26,6.72,23.05,16.75Z"/>
    <path class="cls-85" d="m836.09,585.59c0,4.52-3.67,8.19-8.19,8.19h0c-4.52,0-8.19-3.67-8.19-8.19h0c0-4.52,3.67-8.19,8.19-8.19h0c4.52,0,8.19,3.67,8.19,8.19h0Z"/>
    <ellipse class="cls-71" cx="827.93" cy="585.73" rx="5.29" ry="5.54" transform="translate(-86.85 147.87) rotate(-9.7)"/>
    <path class="cls-85" d="m138.63,603.14c0,5.74-4.65,10.39-10.39,10.39h0c-5.74,0-10.39-4.65-10.39-10.39h0c0-5.74,4.65-10.39,10.39-10.39s10.39,4.65,10.39,10.39Z"/>
    <path class="cls-82" d="m333.57,594.79c.71,9.08-2.74,15.98-10.34,20.71,2.74-4.57,4.52-7.7,5.33-9.41,1.08-2.26,2.36-5.68,3.83-10.26.06-.19.19-.28.39-.29h.28c.28,0,.44-.15.48-.43.01-.11.02-.21.03-.32Z"/>
    <circle class="cls-80" cx="128.01" cy="603.11" r="7.74"/>
    <path class="cls-85" d="m100.77,615.26c-13.97,8.18-20.15-13.35-7.52-15.72,5.53-1.05,9.17,1.39,10.92,7.31.09.31.28.39.58.26,3.51-1.58,6.52-.94,9.05,1.92,7.48,8.46-8.44,19.07-12.33,6.5-.12-.39-.35-.48-.7-.27Z"/>
    <ellipse class="cls-71" cx="95.13" cy="608.16" rx="6.18" ry="6.56" transform="translate(-52.64 10.61) rotate(-5)"/>
    <ellipse class="cls-71" cx="108.09" cy="613.58" rx="4.41" ry="4.79" transform="translate(-165.92 54.04) rotate(-16.1)"/>
    <path class="cls-85" d="m781.11,622.94c-3.21,1.42-7.04-.22-8.57-3.66h0c-1.53-3.44-.16-7.39,3.04-8.81,3.21-1.42,7.04.22,8.57,3.66h0c1.53,3.44.16,7.39-3.04,8.81Z"/>
    <ellipse class="cls-74" cx="778.3" cy="616.58" rx="3.85" ry="4.23" transform="translate(-91.09 136.91) rotate(-9.5)"/>
    <path class="cls-85" d="m848.07,627.1c0,2.82-2.28,5.1-5.1,5.1s-5.1-2.28-5.1-5.1,2.28-5.1,5.1-5.1,5.1,2.28,5.1,5.1Z"/>
    <ellipse class="cls-71" cx="843.29" cy="626.78" rx="1.85" ry="2.16" transform="translate(-45.6 66.54) rotate(-4.4)"/>
    <path class="cls-76" d="m200.82,630.04c2.07.14,2.84.61,3.34,2.7,4.89,20.38,9.9,40.73,15.01,61.06.96,3.83,2.34,6.74-2.39,7.78-7.17-7.67-18.31-7.95-27.18-3.96-3.19,1.43-5.55,2.39-7.07,2.88-1.44-4.88-7.77-27.52.94-28.08,2.96-.19,4.89-1.47,5.78-3.84.11-.31.32-.53.62-.67,3.91-1.83,10.81-7.7,9.13-12.72-2.14-6.41-10.38-.03-14.22,1.39l-.5-.25c10.05-5.82,15.57-14.58,16.54-26.29Z"/>
    <path class="cls-85" d="m792.46,650.49c0,3.45-2.79,6.24-6.24,6.24s-6.24-2.79-6.24-6.24,2.79-6.24,6.24-6.24,6.24,2.79,6.24,6.24Z"/>
    <path class="cls-85" d="m846.34,664.33c-4.83.94-9.53-2.36-10.5-7.37t0,0c-.97-5.01,2.15-9.83,6.97-10.77h0c4.83-.94,9.53,2.36,10.5,7.37.97,5.01-2.15,9.83-6.97,10.77Z"/>
    <path class="cls-41" d="m849.19,659.64c-.48-.82-.53-1.72-.16-2.69.23-.59.03-.83-.6-.72-2.11.37-3.66-.29-4.65-1.98-.18-.31-.43-.55-.76-.71l-2.67-1.34c-.31-.15-.49-.06-.55.28-.12.77-.69,1.18-1.71,1.22" vector-effect="non-scaling-stroke"/>
    <ellipse class="cls-74" cx="786.34" cy="650.38" rx="3.95" ry="3.65" transform="translate(98.32 1404.01) rotate(-87.2)"/>
    <path class="cls-71" d="m849.19,659.64c-.48-.82-.53-1.72-.16-2.69.23-.59.03-.83-.6-.72-2.11.37-3.66-.29-4.65-1.98-.18-.31-.43-.55-.76-.71l-2.67-1.34c-.31-.15-.49-.06-.55.28-.12.77-.69,1.18-1.71,1.22,4.95-10.75,16.59-2.02,11.1,5.94Z"/>
    <path class="cls-96" d="m849.19,659.64c-4.34,6.14-11.23.2-11.1-5.94,1.02-.04,1.59-.45,1.71-1.22.06-.34.24-.43.55-.28l2.67,1.34c.33.16.58.4.76.71.99,1.69,2.54,2.35,4.65,1.98.63-.11.83.13.6.72-.37.97-.32,1.87.16,2.69Z"/>
    <path class="cls-98" d="m182.53,700.5c-.64.61-1.38,1.06-2.22,1.34-.33.11-.55,0-.64-.34l-10.87-38c3.13-2.05,6.63-3.66,10.49-4.81,1.98-.28,3.81-.98,5.49-2.11,3.84-1.42,12.08-7.8,14.22-1.39,1.68,5.02-5.22,10.89-9.13,12.72-.3.14-.51.36-.62.67-.89,2.37-2.82,3.65-5.78,3.84-8.71.56-2.38,23.2-.94,28.08Z"/>
    <path class="cls-96" d="m614.07,740.29c1.06-1.08,2.25-1.06,3.57.07,54.18-14.45,108.39-28.8,162.64-43.06,6.65-1.75,12.5-5.15,17.54-10.21,8.25-8.27,13.39-18.79,15.44-31.56.21-1.3.3-1.29.25.03-.79,23.56-14.55,41.25-37.38,47.43-53.33,14.43-106.73,28.71-160.19,42.84-.33.09-.67-.1-.76-.43,0-.01,0-.02,0-.04l-1.1-5.07Z"/>
    <path class="cls-90" d="m184.28,656.33l.5.25c-1.68,1.13-3.51,1.83-5.49,2.11l4.99-2.36Z"/>
    <path class="cls-93" d="m744.91,677.79c-3.62,5.08-10.83,6.14-16.11,2.38-5.27-3.76-6.61-10.93-2.99-16,3.62-5.08,10.83-6.14,16.11-2.38h0c5.27,3.76,6.61,10.93,2.99,16Z"/>
    <path class="cls-32" d="m742.07,667.54c-.46,6.35-6.52,9.63-12.29,9.79" vector-effect="non-scaling-stroke"/>
    <path class="cls-78" d="m742.07,667.54c-.46,6.35-6.52,9.63-12.29,9.79-10.01-9.89,5.41-21.34,12.29-9.79Z"/>
    <path class="cls-93" d="m711.31,678.81c0,7.22-5.86,13.08-13.08,13.08s-13.08-5.86-13.08-13.08,5.86-13.08,13.08-13.08h0c7.22,0,13.08,5.86,13.08,13.08h0Z"/>
    <path class="cls-26" d="m695.98,688.64c.45-.11.78-.25,1-.43.3-.25.28-.46-.06-.65-3.87-2.16-7.63-6.13-7.57-10.82.02-1.33.07-2.67.15-4.03" vector-effect="non-scaling-stroke"/>
    <path class="cls-74" d="m742.07,667.54c1.53,2.51,1.6,4.92.21,7.25-3.09,5.17-7.26,6.01-12.5,2.54,5.77-.16,11.83-3.44,12.29-9.79Z"/>
    <path class="cls-74" d="m695.98,688.64c.45-.11.78-.25,1-.43.3-.25.28-.46-.06-.65-3.87-2.16-7.63-6.13-7.57-10.82.02-1.33.07-2.67.15-4.03,6.58-10.45,22.78-.92,16.65,10.48-1.89,3.52-5.28,5.34-10.17,5.45Z"/>
    <ellipse class="cls-76" cx="779.25" cy="676.33" rx="3.81" ry="4.14" transform="translate(-250.11 605.15) rotate(-37)"/>
    <path class="cls-85" d="m141.2,677.91c0,2.74-2.22,4.96-4.96,4.96h0c-2.74,0-4.96-2.22-4.96-4.96h0c0-2.74,2.22-4.96,4.96-4.96h0c2.74,0,4.96,2.22,4.96,4.96h0Z"/>
    <path class="cls-86" d="m689.5,672.71c-.08,1.36-.13,2.7-.15,4.03-.06,4.69,3.7,8.66,7.57,10.82.34.19.36.4.06.65-.22.18-.55.32-1,.43-8.1-2.89-10.26-8.2-6.48-15.93Z"/>
    <rect class="cls-71" x="134.29" y="675.8" width="3.74" height="3.8" rx="1.66" ry="1.66" transform="translate(-99.81 27.98) rotate(-8.6)"/>
    <path class="cls-93" d="m682.19,690.4c-.91,6.93-7.5,11.78-14.72,10.83h0c-7.22-.95-12.33-7.34-11.41-14.27.91-6.93,7.5-11.78,14.72-10.83,7.22.95,12.33,7.34,11.41,14.27Z"/>
    <path class="cls-32" d="m668.78,678.83c1.39,2.27,1.82,4.67,1.27,7.2-.5,2.29-2.31,3.42-3.36,5.67-.15.31-.39.51-.72.6l-1.11.27c-.41.11-.74-.01-1-.35-.29-.37-.64-.51-1.07-.42-.48.09-.55.31-.2.66.63.63,1.04,1.39,1.21,2.3.15.73-.05.84-.6.33-2.71-2.55-3.93-5.75-3.67-9.58" vector-effect="non-scaling-stroke"/>
    <path class="cls-78" d="m668.78,678.83c1.39,2.27,1.82,4.67,1.27,7.2-.5,2.29-2.31,3.42-3.36,5.67-.15.31-.39.51-.72.6l-1.11.27c-.41.11-.74-.01-1-.35-.29-.37-.64-.51-1.07-.42-.48.09-.55.31-.2.66.63.63,1.04,1.39,1.21,2.3.15.73-.05.84-.6.33-2.71-2.55-3.93-5.75-3.67-9.58,1.27-4.5,4.36-6.73,9.25-6.68Z"/>
    <path class="cls-74" d="m668.78,678.83c10.44.4,11.5,15.67,1.39,18.38-5.25,1.41-9.14-.83-11.67-6.72-.59-1.35-.24-3.01,1.03-4.98-.26,3.83.96,7.03,3.67,9.58.55.51.75.4.6-.33-.17-.91-.58-1.67-1.21-2.3-.35-.35-.28-.57.2-.66.43-.09.78.05,1.07.42.26.34.59.46,1,.35l1.11-.27c.33-.09.57-.29.72-.6,1.05-2.25,2.86-3.38,3.36-5.67.55-2.53.12-4.93-1.27-7.2Z"/>
    <path class="cls-96" d="m596.23,692.41c4.75,3.08,8.28,7.12,10.59,12.13-.47,1.33-1.32,2.35-2.54,3.04-6.79-10.3-16.54-13.74-29.25-10.32-43.91,11.81-74.74,20.05-92.51,24.72-17.3,4.54-26.3,18.73-22.03,36.62,2.15,9.02,4.38,18.03,6.67,27.02.1.37-.03.63-.39.76-1.6.6-3.91.89-5.02,1.2-51.7,14.05-103.44,27.97-155.21,41.76-7.93,2.11-15.51,2.74-22.76,1.91l-.29-.21c-.3-.22-.33-.47-.08-.75.37-.43.81-.68,1.31-.75.43-.06.61-.3.55-.73-.11-.79.22-1.28,1.01-1.48,4.25-.22,8.44-.87,12.57-1.95,54.27-14.19,108.55-28.39,162.84-42.58.37-.1.54-.34.51-.72-.06-.98-.38-1.91-.96-2.79-2.16-8.25-4.24-16.51-6.23-24.8-3.71-15.42,1.11-27.22,14.47-35.41l110.05-29.58c5.93-.5,11.49.47,16.7,2.91Z"/>
    <path class="cls-85" d="m636.33,704.57c-3.86,1.75-10.45.69-11.73-4.15-3.11-11.73,11.99-15.11,15.22-3.9.1.36.08.71-.07,1.05l-2.82,6.39c-.12.28-.32.48-.6.61Z"/>
    <path class="cls-85" d="m144.96,702.98c-3.09,1.55-6.93.13-8.58-3.16,0,0,0,0,0,0-1.65-3.29-.48-7.22,2.61-8.77h0c3.09-1.55,6.93-.13,8.58,3.16h0c1.65,3.29.48,7.22-2.61,8.77Z"/>
    <rect class="cls-78" x="627.18" y="692.54" width="8.64" height="9.9" rx="3.91" ry="3.91" transform="translate(-12.08 11.13) rotate(-1)"/>
    <circle class="cls-71" cx="141.92" cy="697.13" r="3.37"/>
    <path class="cls-97" d="m606.82,704.54c5.38,10.6,8.35,24.42,10.82,35.82-1.32-1.13-2.51-1.15-3.57-.07-2.79-10.43-4.99-23.13-9.79-32.71,1.22-.69,2.07-1.71,2.54-3.04Z"/>
    <path class="cls-1" d="m281.53,707.33c2.71,1.69,5.28,3.59,7.69,5.69,1.35,1.17,1.25,1.31-.29.41-2.74-1.6-5.29-3.47-7.65-5.6l.25-.5Z"/>
    <path class="cls-85" d="m138.84,731.24c0,4.52-3.67,8.19-8.19,8.19h0c-4.52,0-8.19-3.67-8.19-8.19h0c0-4.52,3.67-8.19,8.19-8.19h0c4.52,0,8.19,3.67,8.19,8.19h0Z"/>
    <circle class="cls-94" cx="130.63" cy="731.17" r="5.27"/>
    <path class="cls-85" d="m591.04,737.17c0,3.88-3.14,7.02-7.02,7.02h0c-3.88,0-7.02-3.14-7.02-7.02h0c0-3.88,3.14-7.02,7.02-7.02h0c3.88,0,7.02,3.14,7.02,7.02h0Z"/>
    <circle class="cls-71" cx="584.04" cy="737.05" r="4.11"/>
    <path class="cls-85" d="m784.85,738.74c0,2.69-2.18,4.87-4.87,4.87s-4.87-2.18-4.87-4.87,2.18-4.87,4.87-4.87,4.87,2.18,4.87,4.87Z"/>
    <path class="cls-85" d="m567.12,747.37c-3.16,2.47-7.79,1.83-10.35-1.43s-2.08-7.92,1.08-10.39c0,0,0,0,0,0,3.16-2.47,7.79-1.83,10.35,1.43s2.08,7.92-1.08,10.39h0Z"/>
    <ellipse class="cls-95" cx="562.43" cy="741.44" rx="4.53" ry="4.77" transform="translate(-234.29 260.5) rotate(-21.7)"/>
    <circle class="cls-94" cx="780.13" cy="738.62" r="1.77"/>
    <path class="cls-85" d="m536.98,752.34c0,7.57-6.14,13.71-13.71,13.71h0c-7.57,0-13.71-6.14-13.71-13.71s6.14-13.71,13.71-13.71,13.71,6.14,13.71,13.71Z"/>
    <path class="cls-16" d="m528.81,761.86c.35-2.17.22-4.53-.39-7.08-1.91-8.07-6.89-10.54-14.93-7.39" vector-effect="non-scaling-stroke"/>
    <path class="cls-85" d="m736.06,748.13c0,4.69-3.8,8.49-8.49,8.49h0c-4.69,0-8.49-3.8-8.49-8.49s3.8-8.49,8.49-8.49h0c4.69,0,8.49,3.8,8.49,8.49h0Z"/>
    <path class="cls-93" d="m263.52,751.71c0,6.37-5.17,11.54-11.54,11.54h0c-6.37,0-11.54-5.17-11.54-11.54h0c0-6.37,5.17-11.54,11.54-11.54s11.54,5.17,11.54,11.54Z"/>
    <path class="cls-80" d="m528.81,761.86c.35-2.17.22-4.53-.39-7.08-1.91-8.07-6.89-10.54-14.93-7.39,8-16.5,31.22,3.52,15.32,14.47Z"/>
    <circle class="cls-73" cx="727.48" cy="748.15" r="5.83"/>
    <ellipse class="cls-74" cx="251.49" cy="751.87" rx="9.02" ry="8.71" transform="translate(-537.8 677.18) rotate(-66.1)"/>
    <path class="cls-85" d="m426.38,758.15c-3.9,10.98-24.63,4.98-17.92-7.42,5.81-10.76,21.78-3.44,17.92,7.42Z"/>
    <path class="cls-73" d="m528.81,761.86c-9.54,5.92-19.75-4.4-15.32-14.47,8.04-3.15,13.02-.68,14.93,7.39.61,2.55.74,4.91.39,7.08Z"/>
    <circle class="cls-74" cx="416.28" cy="754.44" r="6.6"/>
    <path class="cls-85" d="m397.78,765.51c-1.66,6.52-8.57,10.38-15.43,8.64-6.86-1.75-11.08-8.45-9.41-14.97h0c1.66-6.52,8.57-10.38,15.43-8.64,6.86,1.75,11.08,8.45,9.41,14.97h0Z"/>
    <path class="cls-32" d="m388.76,770.3c1.61-4.33.91-8.12-2.11-11.36-1.65-1.78-3.77-2.97-6.35-3.57-.29-.07-.46-.25-.49-.55-.05-.35-.25-.75-.61-1.19" vector-effect="non-scaling-stroke"/>
    <path class="cls-74" d="m388.76,770.3c1.61-4.33.91-8.12-2.11-11.36-1.65-1.78-3.77-2.97-6.35-3.57-.29-.07-.46-.25-.49-.55-.05-.35-.25-.75-.61-1.19,6.16-1.95,10.51-.57,13.04,4.13,2.57,4.76,1.26,9.88-3.48,12.54Z"/>
    <path class="cls-78" d="m379.2,753.63c.36.44.56.84.61,1.19.03.3.2.48.49.55,2.58.6,4.7,1.79,6.35,3.57,3.02,3.24,3.72,7.03,2.11,11.36-12.09,4.63-18.41-9.4-9.56-16.67Z"/>
    <path class="cls-85" d="m197.24,766.24c0,3.5-2.83,6.33-6.33,6.33h0c-3.5,0-6.33-2.83-6.33-6.33h0c0-3.5,2.83-6.33,6.33-6.33h0c3.5,0,6.33,2.83,6.33,6.33h0Z"/>
    <path class="cls-85" d="m682.12,766.58c0,3.46-2.8,6.26-6.26,6.26h0c-3.46,0-6.26-2.8-6.26-6.26h0c0-3.46,2.8-6.26,6.26-6.26s6.26,2.8,6.26,6.26Z"/>
    <path class="cls-85" d="m357.03,763.08c.14,1.41.45,2.44.93,3.09,2.48,3.37,3.27,7.35,2.36,11.94-1.82,9.19-7.42,8.39-14.79,10.72-21.58-6.86-9.25-35.92,11.5-25.75Z"/>
    <path class="cls-22" d="m353.49,765.92c3.65,9.81.57,16.11-9.24,18.9" vector-effect="non-scaling-stroke"/>
    <ellipse class="cls-71" cx="190.85" cy="766.11" rx="3.27" ry="3.51" transform="translate(-216.83 89.98) rotate(-17.1)"/>
    <path class="cls-81" d="m357.03,763.08c8.67,4.14,16.62,14.8,8.61,23.98-5.71,6.54-12.42,7.13-20.11,1.77,7.37-2.33,12.97-1.53,14.79-10.72.91-4.59.12-8.57-2.36-11.94-.48-.65-.79-1.68-.93-3.09Z"/>
    <circle class="cls-71" cx="675.84" cy="766.47" r="3.28"/>
    <path class="cls-85" d="m599.01,769.98c0,3.57-2.89,6.46-6.46,6.46s-6.46-2.89-6.46-6.46h0c0-3.57,2.89-6.46,6.46-6.46h0c3.57,0,6.46,2.89,6.46,6.46Z"/>
    <path class="cls-78" d="m353.49,765.92c3.65,9.81.57,16.11-9.24,18.9-15.26-6.18-4.17-27.78,9.24-18.9Z"/>
    <path class="cls-85" d="m499.98,780.66c-4.23,2.58-9.81,1.16-12.46-3.18s-1.37-9.96,2.87-12.54h0c4.23-2.58,9.81-1.16,12.46,3.18s1.37,9.96-2.87,12.54t0,0Z"/>
    <path class="cls-41" d="m497.32,778.79c-1.03-3.39-2.39-6.67-4.08-9.84-.19-.37-.48-.46-.85-.29-1.54.71-2.24,1.97-2.09,3.76.03.36-.13.56-.49.6-.34.04-.67-.04-.99-.23" vector-effect="non-scaling-stroke"/>
    <path class="cls-82" d="m353.49,765.92c5.25,4.23,6.03,9.3,2.36,15.19-2.64,4.25-6.51,5.48-11.6,3.71,9.81-2.79,12.89-9.09,9.24-18.9Z"/>
    <path class="cls-71" d="m497.32,778.79c-1.03-3.39-2.39-6.67-4.08-9.84-.19-.37-.48-.46-.85-.29-1.54.71-2.24,1.97-2.09,3.76.03.36-.13.56-.49.6-.34.04-.67-.04-.99-.23.04-8.74,12.56-8.15,12.62.32.02,2.55-1.35,4.44-4.12,5.68Z"/>
    <circle class="cls-71" cx="592.7" cy="769.82" r="3.54"/>
    <path class="cls-85" d="m583.01,777.06c0,5.88-4.76,10.64-10.64,10.64s-10.64-4.76-10.64-10.64,4.76-10.64,10.64-10.64h0c5.88,0,10.64,4.76,10.64,10.64Z"/>
    <path class="cls-41" d="m574.03,769.5c-.49-.14-.91-.1-1.26.13-.37.25-.47.57-.28.98l2.4,5.29c.17.38.46.64.85.79l4.25,1.6" vector-effect="non-scaling-stroke"/>
    <path class="cls-96" d="m497.32,778.79c-5,1.01-7.83-.99-8.5-6,.32.19.65.27.99.23.36-.04.52-.24.49-.6-.15-1.79.55-3.05,2.09-3.76.37-.17.66-.08.85.29,1.69,3.17,3.05,6.45,4.08,9.84Z"/>
    <path class="cls-96" d="m574.03,769.5c-.49-.14-.91-.1-1.26.13-.37.25-.47.57-.28.98l2.4,5.29c.17.38.46.64.85.79l4.25,1.6c-.98,7.71-11.84,9.55-14.99,2.11-2.5-5.91,2.2-12.53,9.03-10.9Z"/>
    <path class="cls-71" d="m574.03,769.5c4.49,1.11,6.47,4.04,5.96,8.79l-4.25-1.6c-.39-.15-.68-.41-.85-.79l-2.4-5.29c-.19-.41-.09-.73.28-.98.35-.23.77-.27,1.26-.13Z"/>
    <path class="cls-85" d="m315.42,787.77c-.1.13-.3.34-.45.39-6.89,2.29-14.11-3.68-11.89-10.69,2.35-7.4,11.68-8.98,15.31-1.87,1.81,3.55.78,8.95-2.42,11.61-.2.17-.38.35-.55.56Z"/>
    <path class="cls-85" d="m627.96,780.37c-2.12,9.4-13.02,7.92-13.74-.75,1.55-6.05,4.77-7.92,9.66-5.61,1.23.58,2.18,1.43,2.84,2.56.76,1.29,1.17,2.56,1.24,3.8Z"/>
    <ellipse class="cls-74" cx="311.11" cy="779.87" rx="6.11" ry="6.51" transform="translate(-52.32 22.97) rotate(-3.9)"/>
    <circle class="cls-94" cx="621.01" cy="779.81" r="3.83"/>
    <path class="cls-85" d="m217.83,787.15c0,3.61-2.92,6.53-6.53,6.53h0c-3.61,0-6.53-2.92-6.53-6.53h0c0-3.61,2.92-6.53,6.53-6.53s6.53,2.92,6.53,6.53Z"/>
    <circle class="cls-71" cx="211.23" cy="787.04" r="3.61"/>
    <path class="cls-93" d="m286.54,801.21c-2.77,5.53-9.76,7.63-15.62,4.69-5.86-2.94-8.37-9.79-5.6-15.32h0c2.77-5.53,9.76-7.63,15.62-4.69,5.86,2.94,8.37,9.79,5.6,15.32,0,0,0,0,0,0Z"/>
    <ellipse class="cls-74" cx="275.28" cy="795.8" rx="8.41" ry="8.68" transform="translate(-435.55 344.37) rotate(-38.5)"/>
    <path class="cls-85" d="m566.91,803.6c0,4.16-3.38,7.54-7.54,7.54s-7.54-3.38-7.54-7.54h0c0-4.16,3.38-7.54,7.54-7.54h0c4.16,0,7.54,3.38,7.54,7.54Z"/>
    <path class="cls-85" d="m506.96,803.52c0,3.55-2.87,6.42-6.42,6.42h0c-3.55,0-6.42-2.87-6.42-6.42h0c0-3.55,2.87-6.42,6.42-6.42s6.42,2.87,6.42,6.42Z"/>
    <path class="cls-85" d="m659.28,803.81c0,3.49-2.83,6.32-6.32,6.32h0c-3.49,0-6.32-2.83-6.32-6.32h0c0-3.49,2.83-6.32,6.32-6.32h0c3.49,0,6.32,2.83,6.32,6.32h0Z"/>
    <ellipse class="cls-91" cx="559.2" cy="803.54" rx="4.7" ry="5.2" transform="translate(-92.48 73) rotate(-6.9)"/>
    <ellipse class="cls-71" cx="500.64" cy="803.52" rx="3.44" ry="3.76" transform="translate(-94.19 67) rotate(-7)"/>
    <ellipse class="cls-71" cx="652.89" cy="803.76" rx="3.49" ry="3.15" transform="translate(-166.58 1436.82) rotate(-88.6)"/>
    <path class="cls-93" d="m188.51,812.11c0,4.72-3.83,8.55-8.55,8.55h0c-4.72,0-8.55-3.83-8.55-8.55s3.83-8.55,8.55-8.55,8.55,3.83,8.55,8.55h0Z"/>
    <circle class="cls-94" cx="179.87" cy="812.03" r="5.65"/>
    <path class="cls-84" d="m286.28,827.33c-.79.2-1.12.69-1.01,1.48.06.43-.12.67-.55.73-.5.07-.94.32-1.31.75-.25.28-.22.53.08.75l.29.21c-10.35-1.25-22.15-7.2-28.55-15.91-.56-.77-.47-.85.27-.26,8.99,7.24,19.25,11.32,30.78,12.25Z"/>
    <rect class="cls-83" x="227.32" y="827.32" width="9.48" height="10.68" rx="4.09" ry="4.09" transform="translate(-450.69 302.55) rotate(-36.6)"/>
    <path class="cls-85" d="m624.13,840.91c0,3.82-3.1,6.92-6.92,6.92s-6.92-3.1-6.92-6.92,3.1-6.92,6.92-6.92,6.92,3.1,6.92,6.92Z"/>
    <path class="cls-85" d="m596.53,839.91c0,2.83-2.3,5.13-5.13,5.13h0c-2.83,0-5.13-2.3-5.13-5.13h0c0-2.83,2.3-5.13,5.13-5.13h0c2.83,0,5.13,2.3,5.13,5.13h0Z"/>
    <circle class="cls-71" cx="617.23" cy="840.87" r="4.11"/>
    <path class="cls-93" d="m670.09,850.77c-3.67.59-7.14-2.03-7.75-5.84-.61-3.81,1.87-7.38,5.54-7.97h0c3.67-.59,7.14,2.03,7.75,5.84.61,3.81-1.87,7.38-5.54,7.97Z"/>
    <ellipse class="cls-94" cx="591.34" cy="839.79" rx="1.61" ry="1.88" transform="translate(-298.61 327.04) rotate(-24.9)"/>
    <circle class="cls-71" cx="668.9" cy="843.81" r="3.95"/>
    <path class="cls-85" d="m395.93,856.96c0,5.98-4.84,10.82-10.82,10.82h0c-5.98,0-10.82-4.84-10.82-10.82s4.84-10.82,10.82-10.82,10.82,4.84,10.82,10.82h0Z"/>
    <path class="cls-41" d="m385.07,849.04c.59,1.56,4.83,14.69,2.12,14.54-.51-.03-.61.17-.32.58.17.24.39.38.66.42" vector-effect="non-scaling-stroke"/>
    <path class="cls-85" d="m230.88,854.76c0,3.65-2.95,6.6-6.6,6.6h0c-3.65,0-6.6-2.95-6.6-6.6h0c0-3.65,2.95-6.6,6.6-6.6s6.6,2.95,6.6,6.6Z"/>
    <path class="cls-96" d="m385.07,849.04c.59,1.56,4.83,14.69,2.12,14.54-.51-.03-.61.17-.32.58.17.24.39.38.66.42-12.64,3.9-14.54-16.42-2.46-15.54Z"/>
    <path class="cls-71" d="m385.07,849.04c9.43.87,10.93,12.21,2.46,15.54-.27-.04-.49-.18-.66-.42-.29-.41-.19-.61.32-.58,2.71.15-1.53-12.98-2.12-14.54Z"/>
    <ellipse class="cls-91" cx="224.19" cy="854.57" rx="3.72" ry="4.17" transform="translate(-292.61 138) rotate(-21.1)"/>
    <path class="cls-85" d="m333.07,896.2c0,3.35-2.72,6.07-6.07,6.07h0c-3.35,0-6.07-2.72-6.07-6.07h0c0-3.35,2.72-6.07,6.07-6.07s6.07,2.72,6.07,6.07Z"/>
    <ellipse class="cls-71" cx="326.97" cy="896.12" rx="2.99" ry="3.37" transform="translate(-235.68 125.82) rotate(-16.1)"/>
  </g>
</svg>